<?xml version="1.0" encoding="UTF-8"?>
<svg version="1.1" xmlns="http://www.w3.org/2000/svg" width="227" height="326">
<path d="M0 0 C74.91 0 149.82 0 227 0 C227 107.58 227 215.16 227 326 C152.09 326 77.18 326 0 326 C0 218.42 0 110.84 0 0 Z " fill="#080D10" transform="translate(0,0)"/>
<path d="M0 0 C3.46743174 0.0912482 4.74723773 0.7542589 7.25 3.1875 C9.13906079 6.22349056 9.67137084 8.46723648 10 12 C5.5 16 5.5 16 1 16 C1.556875 16.598125 2.11375 17.19625 2.6875 17.8125 C4.77488794 22.8818707 2.90899988 27.03805755 1 32 C-0.95253089 35.94474737 -3.43993539 38.44329389 -7 41 C-6.69240822 42.97993541 -6.3787932 44.95893599 -6.0625 46.9375 C-5.80146484 48.59072266 -5.80146484 48.59072266 -5.53515625 50.27734375 C-5.28154864 52.90426929 -5.28154864 52.90426929 -4 54 C1.39881588 54.34568689 6.69982429 54.11582647 12 53 C11.125 59.875 11.125 59.875 10 61 C7.67182036 61.36760731 5.3381615 61.70241581 3 62 C2.67 62.99 2.34 63.98 2 65 C1.319375 65.268125 0.63875 65.53625 -0.0625 65.8125 C-4.23779324 67.5003845 -7.48350375 70.22519651 -11 73 C-10.67 74.32 -10.34 75.64 -10 77 C-10.7425 77.0825 -11.485 77.165 -12.25 77.25 C-15.64261399 78.17525836 -16.79598883 79.28171956 -19 82 C-20.04808041 83.97522846 -21.0520411 85.97481509 -22 88 C-24 91 -24 91 -26.125 91.6875 C-26.74375 91.790625 -27.3625 91.89375 -28 92 C-28.66 90.68 -29.32 89.36 -30 88 C-30.66 88.99 -31.32 89.98 -32 91 C-32.66 91 -33.32 91 -34 91 C-34.66 90.01 -35.32 89.02 -36 88 C-36.99 88 -37.98 88 -39 88 C-39.66 86.68 -40.32 85.36 -41 84 C-42.32 84 -43.64 84 -45 84 C-44.53578929 80.75052504 -44.03353506 78.07505466 -42.6875 75.0625 C-41.90893035 71.5943261 -42.18506823 71.07200382 -43.875 68.125 C-44.57625 67.09375 -45.2775 66.0625 -46 65 C-46.66 65 -47.32 65 -48 65 C-48.33 65.66 -48.66 66.32 -49 67 C-49.7425 66.7525 -50.485 66.505 -51.25 66.25 C-52.1575 66.1675 -53.065 66.085 -54 66 C-55.35573748 67.31054623 -56.68612831 68.64748503 -58 70 C-61.75 71.25 -61.75 71.25 -65 72 C-65 71.01 -65 70.02 -65 69 C-67.475 69.495 -67.475 69.495 -70 70 C-70.66 68.02 -71.32 66.04 -72 64 C-72.928125 64.680625 -73.85625 65.36125 -74.8125 66.0625 C-75.864375 66.701875 -76.91625 67.34125 -78 68 C-81 67 -81 67 -83 64 C-85.36462492 62.99364754 -85.36462492 62.99364754 -88 63 C-90.30504044 64.33153266 -90.30504044 64.33153266 -92 66 C-92.99 63.03 -92.99 63.03 -94 60 C-94.66 60 -95.32 60 -96 60 C-95.67 60.99 -95.34 61.98 -95 63 C-97.475 63.495 -97.475 63.495 -100 64 C-100 64.99 -100 65.98 -100 67 C-103 69 -103 69 -106.375 68.9375 C-110.71039396 67.81627742 -112.41139442 66.64022659 -115 63 C-115.15157604 59.28638696 -114.56249539 57.67548042 -112.19140625 54.828125 C-107.22883409 51.9854276 -102.41857934 52.6196378 -96.8125 52.8125 C-80.3394817 53.78412271 -80.3394817 53.78412271 -66.328125 46.51953125 C-60.92286995 41.10231767 -58.32859766 34.57650438 -55.48046875 27.609375 C-54 24 -54 24 -52.96069336 22.04492188 C-51.9430123 19.87869657 -51.51916747 18.03106569 -51.1484375 15.671875 C-51.01953125 14.87265625 -50.890625 14.0734375 -50.7578125 13.25 C-50.63148437 12.425 -50.50515625 11.6 -50.375 10.75 C-50.17390625 9.48929688 -50.17390625 9.48929688 -49.96875 8.203125 C-49.63994409 6.13634499 -49.31918031 4.06828839 -49 2 C-42.25 1.875 -42.25 1.875 -40 3 C-39.94600264 4.45792884 -39.90720823 5.91642712 -39.875 7.375 C-39.85179688 8.18710938 -39.82859375 8.99921875 -39.8046875 9.8359375 C-40 12 -40 12 -42 14 C-42.6425235 16.06874034 -42.6425235 16.06874034 -43 18 C-40.69 17.67 -38.38 17.34 -36 17 C-36 17.66 -36 18.32 -36 19 C-34.4221875 19.0928125 -34.4221875 19.0928125 -32.8125 19.1875 C-28.21890009 20.16646392 -27.26462536 21.73537464 -24 25 C-19.31682714 27.38749989 -15.28536527 29 -10 29 C-9.505 27.515 -9.505 27.515 -9 26 C-8.34 26 -7.68 26 -7 26 C-6.71125 25.4225 -6.4225 24.845 -6.125 24.25 C-5 22 -5 22 -3.9609375 20.3671875 C-2.3214713 16.32850246 -2.56321102 11.97583672 -2.43359375 7.66796875 C-2.20117942 2.20117942 -2.20117942 2.20117942 0 0 Z M-43 66 C-42 68 -42 68 -42 68 Z M-36 85 C-35.67 85.66 -35.34 86.32 -35 87 C-34.34 87 -33.68 87 -33 87 C-33 86.34 -33 85.68 -33 85 C-33.99 85 -34.98 85 -36 85 Z " fill="#555F5B" transform="translate(147,86)"/>
<path d="M0 0 C0.66 0 1.32 0 2 0 C2.495 1.485 2.495 1.485 3 3 C2.34 3.99 1.68 4.98 1 6 C4.465 5.505 4.465 5.505 8 5 C8 5.66 8 6.32 8 7 C9.32 7 10.64 7 12 7 C14 10 14 10 14 13 C13.01 13 12.02 13 11 13 C10.34 18.94 9.68 24.88 9 31 C10.32 30.01 11.64 29.02 13 28 C13.66 28 14.32 28 15 28 C15.99 30.97 15.99 30.97 17 34 C17.66 34 18.32 34 19 34 C19.33 32.68 19.66 31.36 20 30 C21.875 29.375 21.875 29.375 24 29 C26 31 26 31 26 34 C24.5 35.6875 24.5 35.6875 23 37 C23.66 37 24.32 37 25 37 C25.99 36.01 25.99 36.01 27 35 C27.99 36.32 28.98 37.64 30 39 C29.42415568 36.61435923 28.77772405 34.33317216 28 32 C28.33 31.34 28.66 30.68 29 30 C29.66 30 30.32 30 31 30 C31 30.99 31 31.98 31 33 C31.99 32.67 32.98 32.34 34 32 C34 32.99 34 33.98 34 35 C34.66 35 35.32 35 36 35 C35.67 34.01 35.34 33.02 35 32 C35.33 31.34 35.66 30.68 36 30 C36.66 29.855625 37.32 29.71125 38 29.5625 C38.66 29.376875 39.32 29.19125 40 29 C40.495 27.515 40.495 27.515 41 26 C44.41557141 24.19733731 47.16865501 23.781066 51 24 C51 22.68 51 21.36 51 20 C52.98 20 54.96 20 57 20 C56.360625 20.268125 55.72125 20.53625 55.0625 20.8125 C52.66868314 21.88667752 52.66868314 21.88667752 52 25 C51.319375 25.268125 50.63875 25.53625 49.9375 25.8125 C45.76220676 27.5003845 42.51649625 30.22519651 39 33 C39.495 34.98 39.495 34.98 40 37 C39.2575 37.0825 38.515 37.165 37.75 37.25 C34.35738601 38.17525836 33.20401117 39.28171956 31 42 C29.95191959 43.97522846 28.9479589 45.97481509 28 48 C26 51 26 51 23.875 51.6875 C23.25625 51.790625 22.6375 51.89375 22 52 C21.01 50.02 21.01 50.02 20 48 C19.34 48.99 18.68 49.98 18 51 C17.34 51 16.68 51 16 51 C15.34 50.01 14.68 49.02 14 48 C13.01 48 12.02 48 11 48 C10.01 46.02 10.01 46.02 9 44 C7.68 44 6.36 44 5 44 C5.46421071 40.75052504 5.96646494 38.07505466 7.3125 35.0625 C8.09106965 31.5943261 7.81493177 31.07200382 6.125 28.125 C5.42375 27.09375 4.7225 26.0625 4 25 C3.34 25 2.68 25 2 25 C1.67 25.66 1.34 26.32 1 27 C0.2575 26.7525 -0.485 26.505 -1.25 26.25 C-2.1575 26.1675 -3.065 26.085 -4 26 C-5.35573748 27.31054623 -6.68612831 28.64748503 -8 30 C-11.75 31.25 -11.75 31.25 -15 32 C-15 31.01 -15 30.02 -15 29 C-16.65 29.33 -18.3 29.66 -20 30 C-20.66 28.02 -21.32 26.04 -22 24 C-23.3921875 25.0209375 -23.3921875 25.0209375 -24.8125 26.0625 C-25.864375 26.701875 -26.91625 27.34125 -28 28 C-31 27 -31 27 -33 24 C-35.36462492 22.99364754 -35.36462492 22.99364754 -38 23 C-40.30504044 24.33153266 -40.30504044 24.33153266 -42 26 C-42.66 24.02 -43.32 22.04 -44 20 C-44.66 20 -45.32 20 -46 20 C-45.67 20.99 -45.34 21.98 -45 23 C-46.65 23.33 -48.3 23.66 -50 24 C-50 24.99 -50 25.98 -50 27 C-53 29 -53 29 -56.375 28.9375 C-60.71039396 27.81627742 -62.41139442 26.64022659 -65 23 C-65.15157604 19.28638696 -64.56249539 17.67548042 -62.19140625 14.828125 C-57.22883409 11.9854276 -52.41857934 12.6196378 -46.8125 12.8125 C-31.49313838 13.86291818 -31.49313838 13.86291818 -18 8 C-17.21625 7.4225 -16.4325 6.845 -15.625 6.25 C-15.08875 5.8375 -14.5525 5.425 -14 5 C-13.61781233 6.65614657 -13.28604898 8.32457024 -13 10 C-13.33 10.33 -13.66 10.66 -14 11 C-12.68 11 -11.36 11 -10 11 C-9.505 11.99 -9.505 11.99 -9 13 C-8.67 12.01 -8.34 11.02 -8 10 C-7.34 10 -6.68 10 -6 10 C-5.67 8.68 -5.34 7.36 -5 6 C-3.68 6 -2.36 6 -1 6 C-1 5.34 -1 4.68 -1 4 C-1.99 3.67 -2.98 3.34 -4 3 C-2.35 3 -0.7 3 1 3 C0.505 1.515 0.505 1.515 0 0 Z M7 26 C8 28 8 28 8 28 Z M14 45 C14.33 45.66 14.66 46.32 15 47 C15.66 47 16.32 47 17 47 C17 46.34 17 45.68 17 45 C16.01 45 15.02 45 14 45 Z " fill="#243132" transform="translate(97,126)"/>
<path d="M0 0 C6.75 -0.125 6.75 -0.125 9 1 C9.05399736 2.45792884 9.09279177 3.91642712 9.125 5.375 C9.14820312 6.18710938 9.17140625 6.99921875 9.1953125 7.8359375 C9 10 9 10 7 12 C6.3574765 14.06874034 6.3574765 14.06874034 6 16 C9.465 15.505 9.465 15.505 13 15 C10.14521674 16.90318884 8.58058692 17.4619099 5.3125 18.125 C4.50425781 18.29257813 3.69601563 18.46015625 2.86328125 18.6328125 C2.24839844 18.75398438 1.63351563 18.87515625 1 19 C0.67 20.32 0.34 21.64 0 23 C0.66 23.33 1.32 23.66 2 24 C0.35 24 -1.3 24 -3 24 C-3 24.66 -3 25.32 -3 26 C-2.01 26 -1.02 26 0 26 C0 26.66 0 27.32 0 28 C-0.66 28 -1.32 28 -2 28 C-2.33 28.99 -2.66 29.98 -3 31 C-4.4375 32.6875 -4.4375 32.6875 -6 34 C-6.66 34 -7.32 34 -8 34 C-8 35.32 -8 36.64 -8 38 C-6.68 37.34 -5.36 36.68 -4 36 C-4.33 36.99 -4.66 37.98 -5 39 C-4.01 37.68 -3.02 36.36 -2 35 C-0.02 35.66 1.96 36.32 4 37 C4 37.66 4 38.32 4 39 C6.97 38.505 6.97 38.505 10 38 C8.02 37.34 6.04 36.68 4 36 C4.66 34.68 5.32 33.36 6 32 C6.33 32.66 6.66 33.32 7 34 C8.485 33.505 8.485 33.505 10 33 C10 33.99 10 34.98 10 36 C13.465 35.505 13.465 35.505 17 35 C20.08474576 39.40677966 20.08474576 39.40677966 21 42 C20.01712992 44.00847365 19.01622658 46.00819591 18 48 C18.52995896 50.25974499 19.33833627 52.17309559 20.3359375 54.265625 C20.55507812 54.83796875 20.77421875 55.4103125 21 56 C20.505 56.99 20.505 56.99 20 58 C19.34 58 18.68 58 18 58 C17.67 57.01 17.34 56.02 17 55 C17 55.99 17 56.98 17 58 C17 58.99 17 59.98 17 61 C17.495 60.01 17.495 60.01 18 59 C18.94875 59.185625 19.8975 59.37125 20.875 59.5625 C23.89868793 60.28686632 23.89868793 60.28686632 26 59 C25.67 60.98 25.34 62.96 25 65 C25.391875 64.505 25.78375 64.01 26.1875 63.5 C28 62 28 62 30.5625 61.625 C31.7690625 61.810625 31.7690625 61.810625 33 62 C33.66 62.99 34.32 63.98 35 65 C35.99 64.67 36.98 64.34 38 64 C38.33 63.01 38.66 62.02 39 61 C41.64 61 44.28 61 47 61 C43.375 64 43.375 64 40 64 C39.505 65.98 39.505 65.98 39 68 C37.68 68 36.36 68 35 68 C35 69.65 35 71.3 35 73 C34.34 73 33.68 73 33 73 C32.67 72.34 32.34 71.68 32 71 C31.34 71 30.68 71 30 71 C30 70.01 30 69.02 30 68 C29.34 68 28.68 68 28 68 C28.65585189 71.60992379 28.65585189 71.60992379 30 75 C29.67 75.66 29.34 76.32 29 77 C27 76 27 76 26 74 C25.01 74.99 24.02 75.98 23 77 C22.01 76.01 22.01 76.01 21 75 C21.99 73.515 21.99 73.515 23 72 C23.66 72 24.32 72 25 72 C24.34 70.68 23.68 69.36 23 68 C21.01508358 68.26676204 21.01508358 68.26676204 19 69 C18.505 70.485 18.505 70.485 18 72 C17.34 72 16.68 72 16 72 C14 69 14 69 14 66 C13.38125 66.495 12.7625 66.99 12.125 67.5 C10 69 10 69 8 69 C7.78453039 55.76058932 7.78453039 55.76058932 9 51 C11.0625 49.5625 11.0625 49.5625 13 49 C10.702779 47.25728062 8.40133271 45.60088848 6 44 C3.94603274 44.40929986 3.94603274 44.40929986 2 45 C1.34 44.67 0.68 44.34 0 44 C0.33 42.02 0.66 40.04 1 38 C0.67 38.99 0.34 39.98 0 41 C-0.99 41.495 -0.99 41.495 -2 42 C-2 42.66 -2 43.32 -2 44 C-2.9590625 44.1546875 -2.9590625 44.1546875 -3.9375 44.3125 C-4.618125 44.539375 -5.29875 44.76625 -6 45 C-6.33 45.99 -6.66 46.98 -7 48 C-7.66 48 -8.32 48 -9 48 C-9.33 49.32 -9.66 50.64 -10 52 C-10.99 51.67 -11.98 51.34 -13 51 C-12.505 50.505 -12.505 50.505 -12 50 C-13.32 49.67 -14.64 49.34 -16 49 C-15.66666667 47.66666667 -15.33333333 46.33333333 -15 45 C-14.85933105 44.36876221 -14.71866211 43.73752441 -14.57373047 43.0871582 C-14.00010639 41.00038703 -13.24545192 39.27724405 -12.2578125 37.35546875 C-11.91363281 36.67806641 -11.56945312 36.00066406 -11.21484375 35.30273438 C-10.85519531 34.60470703 -10.49554688 33.90667969 -10.125 33.1875 C-5.95555208 25.05478565 -2.65429661 17.6617874 -1.3125 8.5625 C-1.18294922 7.73556641 -1.05339844 6.90863281 -0.91992188 6.05664062 C-0.6050347 4.0390302 -0.30134862 2.0196769 0 0 Z " fill="#4C5652" transform="translate(98,88)"/>
<path d="M0 0 C0 0.99 0 1.98 0 3 C2.475 3.99 2.475 3.99 5 5 C5 5.66 5 6.32 5 7 C4.01 7 3.02 7 2 7 C2 7.99 2 8.98 2 10 C2.99 10.33 3.98 10.66 5 11 C3.35 12.65 1.7 14.3 0 16 C-0.99 15.67 -1.98 15.34 -3 15 C-2.01 13.68 -1.02 12.36 0 11 C-3.30553882 12.06943903 -5.57305076 13.39074569 -8.125 15.6875 C-9.07375 16.450625 -10.0225 17.21375 -11 18 C-14 17 -14 17 -16 14 C-18.36462492 12.99364754 -18.36462492 12.99364754 -21 13 C-23.30504044 14.33153266 -23.30504044 14.33153266 -25 16 C-25.66 14.02 -26.32 12.04 -27 10 C-27.66 10 -28.32 10 -29 10 C-28.67 10.99 -28.34 11.98 -28 13 C-29.65 13.33 -31.3 13.66 -33 14 C-33 14.99 -33 15.98 -33 17 C-36 19 -36 19 -39.375 18.9375 C-43.71039396 17.81627742 -45.41139442 16.64022659 -48 13 C-48.15157604 9.28638696 -47.56249539 7.67548042 -45.19140625 4.828125 C-40.22883409 1.9854276 -35.41857934 2.6196378 -29.8125 2.8125 C-19.53160968 3.06265816 -9.51323834 0 0 0 Z " fill="#334040" transform="translate(80,136)"/>
<path d="M0 0 C3.46743174 0.0912482 4.74723773 0.7542589 7.25 3.1875 C9.13906079 6.22349056 9.67137084 8.46723648 10 12 C5.5 16 5.5 16 1 16 C1.556875 16.598125 2.11375 17.19625 2.6875 17.8125 C4.77488794 22.8818707 2.90899988 27.03805755 1 32 C-0.95253089 35.94474737 -3.43993539 38.44329389 -7 41 C-6.69147815 42.958964 -6.3780582 44.91715713 -6.0625 46.875 C-5.88847656 47.96554688 -5.71445313 49.05609375 -5.53515625 50.1796875 C-5.14448841 52.93821546 -5.14448841 52.93821546 -4 55 C-4.99 55 -5.98 55 -7 55 C-7 56.98 -7 58.96 -7 61 C-8.98 61.495 -8.98 61.495 -11 62 C-11.495 59.525 -11.495 59.525 -12 57 C-12.99 56.67 -13.98 56.34 -15 56 C-16.64820195 53.39757586 -17 52.13751221 -17 49 C-17.66 49 -18.32 49 -19 49 C-19 50.32 -19 51.64 -19 53 C-18.34 53.33 -17.68 53.66 -17 54 C-18.32 54 -19.64 54 -21 54 C-20.34 54.66 -19.68 55.32 -19 56 C-20.32 56 -21.64 56 -23 56 C-23.04254356 54.00045254 -23.04080783 51.99958364 -23 50 C-22.505 49.505 -22.505 49.505 -22 49 C-23.98 48.34 -25.96 47.68 -28 47 C-27.01 46.505 -27.01 46.505 -26 46 C-26 45.01 -26 44.02 -26 43 C-25.01 43.33 -24.02 43.66 -23 44 C-23 44.99 -23 45.98 -23 47 C-22.34 47 -21.68 47 -21 47 C-21.33 45.35 -21.66 43.7 -22 42 C-21.01 42.33 -20.02 42.66 -19 43 C-19.495 45.475 -19.495 45.475 -20 48 C-19.01 47.505 -19.01 47.505 -18 47 C-16.00039988 46.960008 -13.99952758 46.95653201 -12 47 C-12.33 48.32 -12.66 49.64 -13 51 C-12.34 51 -11.68 51 -11 51 C-11.46632861 46.31109917 -11.46632861 46.31109917 -13.0625 41.9375 C-14.35906869 39.25792471 -14.06139775 36.94709216 -14 34 C-14.43941523 31.73433657 -14.43941523 31.73433657 -15 30 C-15.66 30 -16.32 30 -17 30 C-16.67 29.34 -16.34 28.68 -16 28 C-14.02 28.33 -12.04 28.66 -10 29 C-9.67 28.01 -9.34 27.02 -9 26 C-8.34 26 -7.68 26 -7 26 C-6.71125 25.4225 -6.4225 24.845 -6.125 24.25 C-5 22 -5 22 -3.9609375 20.3671875 C-2.3214713 16.32850246 -2.56321102 11.97583672 -2.43359375 7.66796875 C-2.20117942 2.20117942 -2.20117942 2.20117942 0 0 Z " fill="#182426" transform="translate(147,86)"/>
<path d="M0 0 C0.99 0.33 1.98 0.66 3 1 C3.33 1.99 3.66 2.98 4 4 C4.66 4.33 5.32 4.66 6 5 C6.625 7.5625 6.625 7.5625 7 10 C6.34 10 5.68 10 5 10 C4.67 9.01 4.34 8.02 4 7 C3.34 6.67 2.68 6.34 2 6 C2.11306697 7.95894361 2.11306697 7.95894361 3 10 C5.49034386 11.29660434 5.49034386 11.29660434 8 12 C7.01 12.33 6.02 12.66 5 13 C5 14.98 5 16.96 5 19 C5.66 18.67 6.32 18.34 7 18 C6.67 17.34 6.34 16.68 6 16 C6.99 16 7.98 16 9 16 C9 14.68 9 13.36 9 12 C9.66 12 10.32 12 11 12 C11 12.99 11 13.98 11 15 C11.99 15.33 12.98 15.66 14 16 C14 16.99 14 17.98 14 19 C14.9793879 20.02019573 15.97895449 21.02149805 17 22 C17 22.66 17 23.32 17 24 C18.32 24 19.64 24 21 24 C20.814375 23.38125 20.62875 22.7625 20.4375 22.125 C20 20 20 20 21 18 C23.73046875 17.62109375 23.73046875 17.62109375 27.1875 17.4375 C31.53147459 17.19423742 35.71875157 16.78608659 40 16 C39.67 18.31 39.34 20.62 39 23 C35.42355152 24.2380014 32.66305234 23.74926071 29 23 C29 24.32 29 25.64 29 27 C25.37 27 21.74 27 18 27 C17.67 27.66 17.34 28.32 17 29 C16.34 29 15.68 29 15 29 C14.67 29.66 14.34 30.32 14 31 C12.68 29.68 11.36 28.36 10 27 C9.67 27.66 9.34 28.32 9 29 C9 28.34 9 27.68 9 27 C7.02 28.32 5.04 29.64 3 31 C3.33 29.02 3.66 27.04 4 25 C3.01 25 2.02 25 1 25 C-0.33981486 24.6937566 -1.67511887 24.36548445 -3 24 C-3.33 25.32 -3.66 26.64 -4 28 C-4.66 25.69 -5.32 23.38 -6 21 C-5.01 20.01 -4.02 19.02 -3 18 C-3 19.65 -3 21.3 -3 23 C-2.34 23 -1.68 23 -1 23 C-1.67170806 19.1936543 -2.72746564 15.64793184 -4 12 C-3.34 12 -2.68 12 -2 12 C-0.98459888 7.89776415 -0.98459888 7.89776415 -2 4 C-1.0625 1.875 -1.0625 1.875 0 0 Z " fill="#555D58" transform="translate(119,123)"/>
<path d="M0 0 C2.6875 2.4375 2.6875 2.4375 5 5 C6.216875 5.474375 7.43375 5.94875 8.6875 6.4375 C12 8 12 8 13.4375 11.1875 C13.623125 12.115625 13.80875 13.04375 14 14 C13.01 14.99 12.02 15.98 11 17 C9.68 16.34 8.36 15.68 7 15 C7 14.01 7 13.02 7 12 C4.69 11.67 2.38 11.34 0 11 C0.33 12.32 0.66 13.64 1 15 C-0.32 14.67 -1.64 14.34 -3 14 C-3.33 12.35 -3.66 10.7 -4 9 C-4.66 9 -5.32 9 -6 9 C-6 9.99 -6 10.98 -6 12 C-6.99 12 -7.98 12 -9 12 C-9.33 11.34 -9.66 10.68 -10 10 C-10.9075 10.20625 -11.815 10.4125 -12.75 10.625 C-16.19839732 11.022892 -17.15085182 10.7684368 -20 9 C-20.99 8.67 -21.98 8.34 -23 8 C-23 7.34 -23 6.68 -23 6 C-22.01 5.67 -21.02 5.34 -20 5 C-19.67 3.35 -19.34 1.7 -19 0 C-12.34893032 -2.08850014 -6.62094518 -2.49891053 0 0 Z " fill="#63635F" transform="translate(118,106)"/>
<path d="M0 0 C3.57104439 1.87949705 5.54744301 3.17053157 7 7 C7.763125 6.649375 8.52625 6.29875 9.3125 5.9375 C12 5 12 5 15 6 C13.1875 8 13.1875 8 11 10 C10.01 10 9.02 10 8 10 C8 13.3 8 16.6 8 20 C8.99 20 9.98 20 11 20 C11.66 22.31 12.32 24.62 13 27 C12.01 27 11.02 27 10 27 C10 28.98 10 30.96 10 33 C8.02 33.495 8.02 33.495 6 34 C5.505 31.525 5.505 31.525 5 29 C4.01 28.67 3.02 28.34 2 28 C0.35179805 25.39757586 0 24.13751221 0 21 C-0.66 21 -1.32 21 -2 21 C-2 22.32 -2 23.64 -2 25 C-1.34 25.33 -0.68 25.66 0 26 C-1.32 26 -2.64 26 -4 26 C-3.34 26.66 -2.68 27.32 -2 28 C-3.32 28 -4.64 28 -6 28 C-6.04254356 26.00045254 -6.04080783 23.99958364 -6 22 C-5.67 21.67 -5.34 21.34 -5 21 C-6.98 20.34 -8.96 19.68 -11 19 C-10.34 18.67 -9.68 18.34 -9 18 C-9 17.01 -9 16.02 -9 15 C-8.01 15.33 -7.02 15.66 -6 16 C-6 16.99 -6 17.98 -6 19 C-5.34 19 -4.68 19 -4 19 C-4.33 17.35 -4.66 15.7 -5 14 C-4.01 14.33 -3.02 14.66 -2 15 C-2.33 16.65 -2.66 18.3 -3 20 C-2.34 19.67 -1.68 19.34 -1 19 C0.99960012 18.960008 3.00047242 18.95653201 5 19 C4.67 20.32 4.34 21.64 4 23 C4.66 23 5.32 23 6 23 C5.53367139 18.31109917 5.53367139 18.31109917 3.9375 13.9375 C2.64093131 11.25792471 2.93860225 8.94709216 3 6 C2.56058477 3.73433657 2.56058477 3.73433657 2 2 C1.34 2 0.68 2 0 2 C0 1.34 0 0.68 0 0 Z " fill="#434F50" transform="translate(130,114)"/>
<path d="M0 0 C1.65 0.33 3.3 0.66 5 1 C6.97387813 5.76052962 7.0070238 8.96488101 6 14 C6.66 14 7.32 14 8 14 C9.06528748 16.73019786 9.07998186 17.79298812 8.00390625 20.578125 C7.52824219 21.45984375 7.05257812 22.3415625 6.5625 23.25 C6.08941406 24.14203125 5.61632812 25.0340625 5.12890625 25.953125 C4.75636719 26.62859375 4.38382813 27.3040625 4 28 C3.34 28 2.68 28 2 28 C1.67 28.99 1.34 29.98 1 31 C0.01 30.67 -0.98 30.34 -2 30 C-1.67 29.34 -1.34 28.68 -1 28 C-1.66 27.67 -2.32 27.34 -3 27 C-3 26.34 -3 25.68 -3 25 C-3.66 24.67 -4.32 24.34 -5 24 C-5.61528766 18.92387682 -3.61658349 16.17017994 -1 12 C-0.01 12 0.98 12 2 12 C1.67 11.505 1.34 11.01 1 10.5 C-0.43636358 6.90909106 -0.12851462 3.85543873 0 0 Z " fill="#364140" transform="translate(126,77)"/>
<path d="M0 0 C4.69140429 2.49230853 6.9172939 7.37641128 9 12.0625 C9 12.7225 9 13.3825 9 14.0625 C7.68 14.0625 6.36 14.0625 5 14.0625 C3.9739266 15.37587396 2.97272675 16.70914105 2 18.0625 C1.01 18.0625 0.02 18.0625 -1 18.0625 C-0.34 19.0525 0.32 20.0425 1 21.0625 C1.99 21.0625 2.98 21.0625 4 21.0625 C4 22.0525 4 23.0425 4 24.0625 C2 25.75 2 25.75 0 27.0625 C-3.80775257 20.17228107 -7.1166405 12.03850354 -6 4.0625 C-3.22683706 0.10083866 -3.22683706 0.10083866 0 0 Z " fill="#2A3737" transform="translate(98,54.9375)"/>
<path d="M0 0 C1.98 0 3.96 0 6 0 C5.0409375 0.4021875 5.0409375 0.4021875 4.0625 0.8125 C1.66868314 1.88667752 1.66868314 1.88667752 1 5 C0.319375 5.268125 -0.36125 5.53625 -1.0625 5.8125 C-5.23779324 7.5003845 -8.48350375 10.22519651 -12 13 C-11.67 14.32 -11.34 15.64 -11 17 C-12.11375 17.12375 -12.11375 17.12375 -13.25 17.25 C-16.64261399 18.17525836 -17.79598883 19.28171956 -20 22 C-21.04808041 23.97522846 -22.0520411 25.97481509 -23 28 C-25 31 -25 31 -27.125 31.6875 C-27.74375 31.790625 -28.3625 31.89375 -29 32 C-29.66 30.68 -30.32 29.36 -31 28 C-31.66 28.99 -32.32 29.98 -33 31 C-33.66 31 -34.32 31 -35 31 C-35.33 29.68 -35.66 28.36 -36 27 C-35.34 27 -34.68 27 -34 27 C-34 26.34 -34 25.68 -34 25 C-32.35 24.67 -30.7 24.34 -29 24 C-29.99 23.01 -30.98 22.02 -32 21 C-30.02 21 -28.04 21 -26 21 C-25.87625 21.639375 -25.7525 22.27875 -25.625 22.9375 C-25.41875 23.618125 -25.2125 24.29875 -25 25 C-24.34 25.33 -23.68 25.66 -23 26 C-23.04125 25.0925 -23.0825 24.185 -23.125 23.25 C-23 20 -23 20 -21.875 17.875 C-21.58625 17.25625 -21.2975 16.6375 -21 16 C-21.89163577 13.88316159 -21.89163577 13.88316159 -23 12 C-22.67 11.34 -22.34 10.68 -22 10 C-21.34 10 -20.68 10 -20 10 C-20 10.99 -20 11.98 -20 13 C-19.01 12.67 -18.02 12.34 -17 12 C-17 12.99 -17 13.98 -17 15 C-16.34 15 -15.68 15 -15 15 C-15.33 14.01 -15.66 13.02 -16 12 C-15.67 11.34 -15.34 10.68 -15 10 C-14.34 9.855625 -13.68 9.71125 -13 9.5625 C-12.01 9.2840625 -12.01 9.2840625 -11 9 C-10.67 8.01 -10.34 7.02 -10 6 C-6.58442859 4.19733731 -3.83134499 3.781066 0 4 C0 2.68 0 1.36 0 0 Z " fill="#2A3739" transform="translate(148,146)"/>
<path d="M0 0 C2 2.0625 2 2.0625 3 5 C2.93510145 8.7641159 2.77538789 11.04567645 0.375 14 C-3.11581787 15.46981805 -5.39148956 14.98413921 -9 14 C-11 12.3125 -11 12.3125 -12 10 C-11.92639149 6.46679161 -11.37138247 4.54278976 -9.375 1.625 C-6.03778714 -0.65835617 -3.94997891 -0.64636018 0 0 Z " fill="#0A1014" transform="translate(130,272)"/>
<path d="M0 0 C2.69082872 0.17635452 5.32851446 0.61835921 8 1 C7.01 1.495 7.01 1.495 6 2 C7.70625501 4.78388975 8.47626739 5.85384206 11.6875 6.75 C12.450625 6.8325 13.21375 6.915 14 7 C13.67 8.65 13.34 10.3 13 12 C12.01 12 11.02 12 10 12 C10 13.98 10 15.96 10 18 C7.625 18.625 7.625 18.625 5 19 C4.34 18.34 3.68 17.68 3 17 C3 16.01 3 15.02 3 14 C2.34 13.67 1.68 13.34 1 13 C1 11.68 1 10.36 1 9 C-0.65 9.33 -2.3 9.66 -4 10 C-4.33 10.99 -4.66 11.98 -5 13 C-5.33 12.34 -5.66 11.68 -6 11 C-5.54625 10.649375 -5.0925 10.29875 -4.625 9.9375 C-2.35900429 7.23573588 -1.8752624 4.37601211 -1 1 C-0.67 0.67 -0.34 0.34 0 0 Z " fill="#1A2525" transform="translate(146,184)"/>
<path d="M0 0 C0.66 0 1.32 0 2 0 C2.33 0.99 2.66 1.98 3 3 C2.01 4.485 2.01 4.485 1 6 C4.465 5.505 4.465 5.505 8 5 C8 5.66 8 6.32 8 7 C9.32 7 10.64 7 12 7 C14 10 14 10 14 13 C13.01 13 12.02 13 11 13 C10.67 13.99 10.34 14.98 10 16 C9.34 16 8.68 16 8 16 C7.67 14.35 7.34 12.7 7 11 C6.01 11.495 6.01 11.495 5 12 C4.53348793 14.12576782 4.53348793 14.12576782 4.375 16.5625 C4.30023438 17.38878906 4.22546875 18.21507812 4.1484375 19.06640625 C4.09945312 19.70449219 4.05046875 20.34257812 4 21 C3.21625 20.979375 2.4325 20.95875 1.625 20.9375 C-0.98114961 20.81315937 -0.98114961 20.81315937 -3 22 C-3.33 20.02 -3.66 18.04 -4 16 C-2.35 16.33 -0.7 16.66 1 17 C1 15.35 1 13.7 1 12 C0.34 12 -0.32 12 -1 12 C-0.67 10.68 -0.34 9.36 0 8 C-4.06024321 10.03802135 -4.06024321 10.03802135 -6 14 C-6.99 13.67 -7.98 13.34 -9 13 C-8.67 12.01 -8.34 11.02 -8 10 C-7.34 10 -6.68 10 -6 10 C-5.67 8.68 -5.34 7.36 -5 6 C-3.68 6 -2.36 6 -1 6 C-1 5.34 -1 4.68 -1 4 C-1.99 3.67 -2.98 3.34 -4 3 C-2.35 3 -0.7 3 1 3 C0.67 2.01 0.34 1.02 0 0 Z " fill="#323A3B" transform="translate(97,126)"/>
<path d="M0 0 C2.64 0.33 5.28 0.66 8 1 C8 4.3 8 7.6 8 11 C8.99 10.67 9.98 10.34 11 10 C13.61281488 15.87883349 13.18328202 21.70731728 13 28 C13.99 28.33 14.98 28.66 16 29 C16 29.99 16 30.98 16 32 C15.34 32 14.68 32 14 32 C14 31.34 14 30.68 14 30 C11.69 30.33 9.38 30.66 7 31 C7.875 26.125 7.875 26.125 9 25 C9.23192865 23.48530552 9.41215238 21.96245438 9.5625 20.4375 C9.706875 18.973125 9.85125 17.50875 10 16 C7.03 15.67 4.06 15.34 1 15 C0.92572162 11.65747276 0.93453047 9.1964086 2 6 C2.99 6 3.98 6 5 6 C5 5.01 5 4.02 5 3 C3.68 3.33 2.36 3.66 1 4 C0.67 2.68 0.34 1.36 0 0 Z M8 0 C10 1 10 1 10 1 Z " fill="#233030" transform="translate(97,73)"/>
<path d="M0 0 C1 2 1 2 1 5 C1.5775 4.649375 2.155 4.29875 2.75 3.9375 C5 3 5 3 7.1875 3.25 C9 4 9 4 10 6 C10.99 5.67 11.98 5.34 13 5 C13.33 4.01 13.66 3.02 14 2 C16.64 2 19.28 2 22 2 C18.375 5 18.375 5 15 5 C14.67 6.32 14.34 7.64 14 9 C12.68 9 11.36 9 10 9 C10 10.65 10 12.3 10 14 C9.34 14 8.68 14 8 14 C7.67 13.34 7.34 12.68 7 12 C6.34 12 5.68 12 5 12 C5 11.01 5 10.02 5 9 C4.34 9 3.68 9 3 9 C3.65585189 12.60992379 3.65585189 12.60992379 5 16 C4.67 16.66 4.34 17.32 4 18 C2 17 2 17 1 15 C0.01 15.99 -0.98 16.98 -2 18 C-2.66 17.34 -3.32 16.68 -4 16 C-3.34 15.01 -2.68 14.02 -2 13 C-1.34 13 -0.68 13 0 13 C-1.36983503 9.83884224 -1.9890638 9.0072908 -5 7 C-3.75023244 3.34683329 -3.32901247 2.21934164 0 0 Z " fill="#434E4C" transform="translate(123,147)"/>
<path d="M0 0 C1.48484412 0.39595843 2.9628831 0.81750706 4.4375 1.25 C5.26121094 1.48203125 6.08492187 1.7140625 6.93359375 1.953125 C9 3 9 3 9.78515625 5.109375 C9.85605469 5.73328125 9.92695312 6.3571875 10 7 C10 5.68 10 4.36 10 3 C8.07977297 1.22590192 8.07977297 1.22590192 6 0 C10.16138263 -0.08159574 13.9472484 0.01751476 18 1 C17.67 2.32 17.34 3.64 17 5 C17.66 5.33 18.32 5.66 19 6 C19 6.66 19 7.32 19 8 C17.02 8.33 15.04 8.66 13 9 C13 9.99 13 10.98 13 12 C12.01 12 11.02 12 10 12 C9.67 11.34 9.34 10.68 9 10 C8.0925 10.20625 7.185 10.4125 6.25 10.625 C2.80160268 11.022892 1.84914818 10.7684368 -1 9 C-1.99 8.67 -2.98 8.34 -4 8 C-4 7.34 -4 6.68 -4 6 C-3.01 5.67 -2.02 5.34 -1 5 C-0.67 3.35 -0.34 1.7 0 0 Z " fill="#787C75" transform="translate(99,106)"/>
<path d="M0 0 C4.455 0.99 4.455 0.99 9 2 C9 2.99 9 3.98 9 5 C10.65 5.33 12.3 5.66 14 6 C14.33 4.02 14.66 2.04 15 0 C18.3497658 3.3497658 18.47927626 6.56756659 18.7890625 11.07421875 C18.7973509 13.00598803 18.7973509 13.00598803 20 14 C20.04092937 16.33297433 20.04241723 18.66705225 20 21 C19.34 21 18.68 21 18 21 C17.67 20.01 17.34 19.02 17 18 C15.02 18 13.04 18 11 18 C11.33 16.35 11.66 14.7 12 13 C11.360625 12.773125 10.72125 12.54625 10.0625 12.3125 C8 11 8 11 7.25 8.375 C7.1675 7.59125 7.085 6.8075 7 6 C5.68 6 4.36 6 3 6 C2.87625 5.195625 2.7525 4.39125 2.625 3.5625 C2.315625 2.2940625 2.315625 2.2940625 2 1 C1.34 0.67 0.68 0.34 0 0 Z " fill="#666E69" transform="translate(116,116)"/>
<path d="M0 0 C-1 2 -1 2 -3 5 C-2.67 5.66 -2.34 6.32 -2 7 C-2.66 7 -3.32 7 -4 7 C-4 7.66 -4 8.32 -4 9 C-4.66 9 -5.32 9 -6 9 C-6 9.66 -6 10.32 -6 11 C-9.3 10.67 -12.6 10.34 -16 10 C-17.34266134 4.62935465 -17.34266134 4.62935465 -15.828125 1.84765625 C-13.53188921 -0.47311197 -12.28158642 -0.60434855 -9.0625 -0.8125 C-8.20785156 -0.88082031 -7.35320313 -0.94914063 -6.47265625 -1.01953125 C-4.12269497 -1.00096915 -2.23898272 -0.68052607 0 0 Z " fill="#98948C" transform="translate(49,141)"/>
<path d="M0 0 C6.75 -0.125 6.75 -0.125 9 1 C9.78095685 8.96575985 9.78095685 8.96575985 6.6875 13.0625 C4 15 4 15 1 15 C-1.14699969 11.55824478 -1.09856795 9.2279708 -0.625 5.25 C-0.51414062 4.26515625 -0.40328125 3.2803125 -0.2890625 2.265625 C-0.19367188 1.51796875 -0.09828125 0.7703125 0 0 Z " fill="#6C726B" transform="translate(98,88)"/>
<path d="M0 0 C3 0.25 3 0.25 5 2.25 C5.50442453 7.49601514 4.64964989 10.72351478 2 15.25 C1.34 15.25 0.68 15.25 0 15.25 C0 14.26 0 13.27 0 12.25 C-1.32 12.25 -2.64 12.25 -4 12.25 C-5.11445498 10.02109005 -5.16480286 8.71944894 -5.1875 6.25 C-5.20167969 5.54875 -5.21585937 4.8475 -5.23046875 4.125 C-4.80271725 0.64498783 -3.27487943 0.27290662 0 0 Z " fill="#354140" transform="translate(126,51.75)"/>
<path d="M0 0 C0.99 0 1.98 0 3 0 C3 0.99 3 1.98 3 3 C4.65 3 6.3 3 8 3 C7.855625 3.70125 7.71125 4.4025 7.5625 5.125 C6.98521625 8.07556141 6.48304859 11.03270151 6 14 C5.34 14 4.68 14 4 14 C3.67 14.99 3.34 15.98 3 17 C2.01 16.67 1.02 16.34 0 16 C0.33 15.34 0.66 14.68 1 14 C0.34 13.67 -0.32 13.34 -1 13 C-1 12.34 -1 11.68 -1 11 C-1.66 10.67 -2.32 10.34 -3 10 C-3.36265043 5.76907828 -2.60250805 3.37362154 0 0 Z " fill="#5F6963" transform="translate(124,91)"/>
<path d="M0 0 C3.57104439 1.87949705 5.54744301 3.17053157 7 7 C7.763125 6.649375 8.52625 6.29875 9.3125 5.9375 C12 5 12 5 15 6 C13.1875 8 13.1875 8 11 10 C10.01 10 9.02 10 8 10 C8 13.3 8 16.6 8 20 C8.99 20 9.98 20 11 20 C11.66 22.31 12.32 24.62 13 27 C12.01 27 11.02 27 10 27 C9.34 28.32 8.68 29.64 8 31 C6.875 27.25 6.875 27.25 8 25 C8.66 25.33 9.32 25.66 10 26 C10 24.68 10 23.36 10 22 C9.01 22 8.02 22 7 22 C2.57166392 11.99670511 2.57166392 11.99670511 3 6 C2.56058477 3.73433657 2.56058477 3.73433657 2 2 C1.34 2 0.68 2 0 2 C0 1.34 0 0.68 0 0 Z " fill="#2B3737" transform="translate(130,114)"/>
<path d="M0 0 C0.66 0 1.32 0 2 0 C1.67 1.98 1.34 3.96 1 6 C1.66 6 2.32 6 3 6 C2.67 8.97 2.34 11.94 2 15 C0.68 15 -0.64 15 -2 15 C-2.33 15.66 -2.66 16.32 -3 17 C-4.32 17 -5.64 17 -7 17 C-8.75 14.5 -8.75 14.5 -10 12 C-9.01 11.67 -8.02 11.34 -7 11 C-6.67 10.01 -6.34 9.02 -6 8 C-5.34 8 -4.68 8 -4 8 C-3.71125 7.4225 -3.4225 6.845 -3.125 6.25 C-1.5625 3.125 -1.5625 3.125 0 0 Z " fill="#595A57" transform="translate(144,104)"/>
<path d="M0 0 C1.27617188 0.02320313 2.55234375 0.04640625 3.8671875 0.0703125 C5.78917969 0.09738281 5.78917969 0.09738281 7.75 0.125 C9.23113281 0.15980469 9.23113281 0.15980469 10.7421875 0.1953125 C10.7421875 0.8553125 10.7421875 1.5153125 10.7421875 2.1953125 C10.0821875 2.1953125 9.4221875 2.1953125 8.7421875 2.1953125 C9.4021875 4.8353125 10.0621875 7.4753125 10.7421875 10.1953125 C9.0921875 10.5253125 7.4421875 10.8553125 5.7421875 11.1953125 C5.7421875 12.1853125 5.7421875 13.1753125 5.7421875 14.1953125 C2.7421875 16.1953125 2.7421875 16.1953125 -0.7578125 16.0078125 C-4.2578125 15.1953125 -4.2578125 15.1953125 -7.2578125 12.1953125 C-4.2878125 12.5253125 -1.3178125 12.8553125 1.7421875 13.1953125 C1.7421875 12.5353125 1.7421875 11.8753125 1.7421875 11.1953125 C2.4021875 11.1953125 3.0621875 11.1953125 3.7421875 11.1953125 C3.8659375 10.2671875 3.9896875 9.3390625 4.1171875 8.3828125 C4.7421875 5.1953125 4.7421875 5.1953125 6.7421875 2.1953125 C2.7821875 2.1953125 -1.1778125 2.1953125 -5.2578125 2.1953125 C-3.2578125 0.1953125 -3.2578125 0.1953125 0 0 Z " fill="#33403F" transform="translate(41.2578125,138.8046875)"/>
<path d="M0 0 C0.86625 0.37125 0.86625 0.37125 1.75 0.75 C2.59454356 4.12817425 2.85844919 6.42465243 1.75 9.75 C1.09 9.75 0.43 9.75 -0.25 9.75 C-0.58 11.4 -0.91 13.05 -1.25 14.75 C-3.1875 14.4375 -3.1875 14.4375 -5.25 13.75 C-6.44754817 10.15735548 -6.58094958 7.52282526 -6.25 3.75 C-3.36340206 -0.37371134 -3.36340206 -0.37371134 0 0 Z " fill="#646C69" transform="translate(98.25,55.25)"/>
<path d="M0 0 C0.33 0.66 0.66 1.32 1 2 C1.66 2 2.32 2 3 2 C3.5534764 4.07553648 4 5.84365964 4 8 C7.465 9.485 7.465 9.485 11 11 C11 11.33 11 11.66 11 12 C4.25 12.125 4.25 12.125 2 11 C2 10.34 2 9.68 2 9 C0.68 9 -0.64 9 -2 9 C-3.77409808 10.92022703 -3.77409808 10.92022703 -5 13 C-5.66 12.67 -6.32 12.34 -7 12 C-7 11.67 -7 11.34 -7 11 C-7.99 11.495 -7.99 11.495 -9 12 C-8.67 10.35 -8.34 8.7 -8 7 C-7.34 7 -6.68 7 -6 7 C-5.67 6.01 -5.34 5.02 -5 4 C-3.37667033 2.61423077 -1.71275535 1.27358732 0 0 Z " fill="#606763" transform="translate(98,115)"/>
<path d="M0 0 C6.875 0.875 6.875 0.875 8 2 C8.33 1.34 8.66 0.68 9 0 C9.66 0 10.32 0 11 0 C11 0.99 11 1.98 11 3 C12.9837136 4.02863254 12.9837136 4.02863254 15.0625 4.8125 C17 6 17 6 17.75 8.125 C17.87375 9.053125 17.87375 9.053125 18 10 C19.32 9.01 20.64 8.02 22 7 C22.66 7.33 23.32 7.66 24 8 C21.6875 10.0625 21.6875 10.0625 19 12 C16 11 16 11 14 8 C11.63537508 6.99364754 11.63537508 6.99364754 9 7 C6.69495956 8.33153266 6.69495956 8.33153266 5 10 C4.34 8.02 3.68 6.04 3 4 C2.34 4 1.68 4 1 4 C0.67 2.68 0.34 1.36 0 0 Z " fill="#172324" transform="translate(50,142)"/>
<path d="M0 0 C0.33 0.99 0.66 1.98 1 3 C1.99 3.33 2.98 3.66 4 4 C3.67 4.66 3.34 5.32 3 6 C3.99 6.33 4.98 6.66 6 7 C5.67 7.66 5.34 8.32 5 9 C5.66 9 6.32 9 7 9 C7.66 8.34 8.32 7.68 9 7 C9 9.64 9 12.28 9 15 C7.02 15 5.04 15 3 15 C3 14.34 3 13.68 3 13 C2.360625 12.731875 1.72125 12.46375 1.0625 12.1875 C-1 11 -1 11 -2 8 C-3.65 8 -5.3 8 -7 8 C-7 7.67 -7 7.34 -7 7 C-5.35 7 -3.7 7 -2 7 C-1.34 4.69 -0.68 2.38 0 0 Z " fill="#3C403C" transform="translate(120,98)"/>
<path d="M0 0 C0.66 0.33 1.32 0.66 2 1 C1.67 1.99 1.34 2.98 1 4 C1.66 4.66 2.32 5.32 3 6 C2.34 6 1.68 6 1 6 C1 6.7425 1 7.485 1 8.25 C1 10.5 1 12.75 1 15 C0.34 15 -0.32 15 -1 15 C-1.33 18.3 -1.66 21.6 -2 25 C-4 24 -4 24 -5.125 21.375 C-6.05654649 17.78189212 -6.14783375 14.69584376 -6 11 C-4.68 10.67 -3.36 10.34 -2 10 C-2.33 7.03 -2.66 4.06 -3 1 C-2.01 0.67 -1.02 0.34 0 0 Z " fill="#525852" transform="translate(113,128)"/>
<path d="M0 0 C4.55555556 0.55555556 4.55555556 0.55555556 6 2 C6.45226612 6.86186074 5.40385693 9.79325038 3 14 C1.0625 13.6875 1.0625 13.6875 -1 13 C-2.30765478 9.07703567 -2.1971417 6.13997567 -2 2 C-1.34 1.34 -0.68 0.68 0 0 Z " fill="#444E4B" transform="translate(147,86)"/>
<path d="M0 0 C2.50298434 2.93828597 3.46930939 5.17902761 4 9 C4.66 9 5.32 9 6 9 C6.99 6.03 7.98 3.06 9 0 C9.66 0 10.32 0 11 0 C13.29612756 9.41002278 13.29612756 9.41002278 13 14 C12.34 14 11.68 14 11 14 C10.34 11.69 9.68 9.38 9 7 C8.01 8.98 7.02 10.96 6 13 C5.34 13 4.68 13 4 13 C3.34 10.69 2.68 8.38 2 6 C1.34 6 0.68 6 0 6 C0 8.31 0 10.62 0 13 C-0.99 13.33 -1.98 13.66 -3 14 C-2.69147815 12.041036 -2.3780582 10.08284287 -2.0625 8.125 C-1.88847656 7.03445313 -1.71445313 5.94390625 -1.53515625 4.8203125 C-1 2 -1 2 0 0 Z " fill="#8D9CA2" transform="translate(145,273)"/>
<path d="M0 0 C1.32 0 2.64 0 4 0 C3.67 2.31 3.34 4.62 3 7 C-0.12180401 7.96661363 -2.52083795 7.98988909 -5.75 7.5625 C-6.94882813 7.40974609 -6.94882813 7.40974609 -8.171875 7.25390625 C-8.77515625 7.17011719 -9.3784375 7.08632812 -10 7 C-10 7.66 -10 8.32 -10 9 C-11.32 9 -12.64 9 -14 9 C-14 8.01 -14 7.02 -14 6 C-13.34 6 -12.68 6 -12 6 C-12 5.34 -12 4.68 -12 4 C-8.16262438 3.19213145 -4.93591456 3 -1 3 C-0.67 2.01 -0.34 1.02 0 0 Z " fill="#7A8280" transform="translate(155,139)"/>
<path d="M0 0 C0.66 0.33 1.32 0.66 2 1 C1.505 1.4125 1.01 1.825 0.5 2.25 C-1.43386092 4.12202338 -1.43386092 4.12202338 -1 8 C-1.66 8.66 -2.32 9.32 -3 10 C-2.34 10 -1.68 10 -1 10 C-1 10.66 -1 11.32 -1 12 C-1.66 12 -2.32 12 -3 12 C-3.33 13.32 -3.66 14.64 -4 16 C-4.99 15.67 -5.98 15.34 -7 15 C-6.67 14.67 -6.34 14.34 -6 14 C-7.32 13.67 -8.64 13.34 -10 13 C-9.66666667 11.66666667 -9.33333333 10.33333333 -9 9 C-8.835 8.29875 -8.67 7.5975 -8.5 6.875 C-8 5 -8 5 -7 3 C-5.01276732 2.29618843 -3.01222047 1.6288189 -1 1 C-0.67 0.67 -0.34 0.34 0 0 Z " fill="#4D585A" transform="translate(92,124)"/>
<path d="M0 0 C2 2.0625 2 2.0625 3 5 C2.93510145 8.7641159 2.77538789 11.04567645 0.375 14 C-3.11581787 15.46981805 -5.39148956 14.98413921 -9 14 C-11 12.3125 -11 12.3125 -12 10 C-11.92639149 6.46679161 -11.37138247 4.54278976 -9.375 1.625 C-6.03778714 -0.65835617 -3.94997891 -0.64636018 0 0 Z M-8.8125 3.1875 C-10.42525784 5.64907776 -10.4334014 7.11065736 -10 10 C-8.98029682 11.93654948 -8.98029682 11.93654948 -7 13 C-3.95788569 13.4167552 -3.95788569 13.4167552 -1 13 C1.29827312 11.12061828 1.29827312 11.12061828 1.3125 8.0625 C1.23696753 5.06545805 1.23696753 5.06545805 -0.1875 3.125 C-3.24563169 1.22684929 -5.79623169 1.21132421 -8.8125 3.1875 Z " fill="#7D8E94" transform="translate(130,272)"/>
<path d="M0 0 C2.875 1.5 2.875 1.5 4.25 4.625 C4.45625 5.57375 4.6625 6.5225 4.875 7.5 C3.885 8.49 2.895 9.48 1.875 10.5 C0.555 9.84 -0.765 9.18 -2.125 8.5 C-2.125 7.51 -2.125 6.52 -2.125 5.5 C-6.58 4.51 -6.58 4.51 -11.125 3.5 C-9.805 2.84 -8.485 2.18 -7.125 1.5 C-6.50625 1.0875 -5.8875 0.675 -5.25 0.25 C-3.125 -0.5 -3.125 -0.5 0 0 Z " fill="#8E827A" transform="translate(127.125,112.5)"/>
<path d="M0 0 C4.875 1.75 4.875 1.75 6 4 C6.66 4.33 7.32 4.66 8 5 C7.67 5.66 7.34 6.32 7 7 C7.99 7 8.98 7 10 7 C10 9 10 9 8.6875 10.625 C7 12 7 12 4 12 C3.34 10.68 2.68 9.36 2 8 C0.68 8 -0.64 8 -2 8 C-1.125 2.25 -1.125 2.25 0 0 Z " fill="#1A2628" transform="translate(104,162)"/>
<path d="M0 0 C0.66 0 1.32 0 2 0 C2 0.66 2 1.32 2 2 C2.66 2.33 3.32 2.66 4 3 C4 3.66 4 4.32 4 5 C2.68 5 1.36 5 0 5 C-0.33 7.31 -0.66 9.62 -1 12 C-2.65 12.33 -4.3 12.66 -6 13 C-6.33 12.01 -6.66 11.02 -7 10 C-7.66 9.835 -8.32 9.67 -9 9.5 C-9.66 9.335 -10.32 9.17 -11 9 C-11.33 8.01 -11.66 7.02 -12 6 C-9.21176345 4.9673198 -8.1322726 4.95490707 -5.25 5.9375 C-4.5075 6.288125 -3.765 6.63875 -3 7 C-3.33 5.68 -3.66 4.36 -4 3 C-3.01 2.34 -2.02 1.68 -1 1 C-0.67 0.67 -0.34 0.34 0 0 Z " fill="#283638" transform="translate(75,137)"/>
<path d="M0 0 C0.66 0 1.32 0 2 0 C2.83764268 1.95649397 3.66999059 3.91525556 4.5 5.875 C4.9640625 6.96554687 5.428125 8.05609375 5.90625 9.1796875 C7 12 7 12 7 14 C6.34 14 5.68 14 5 14 C4.67 13.01 4.34 12.02 4 11 C2.02 11 0.04 11 -2 11 C-2.33 11.99 -2.66 12.98 -3 14 C-3.66 14 -4.32 14 -5 14 C-4.34580901 8.93001981 -2.1453591 4.58009223 0 0 Z " fill="#808B8F" transform="translate(68,273)"/>
<path d="M0 0 C3.3497658 3.3497658 3.47927626 6.56756659 3.7890625 11.07421875 C3.7973509 13.00598803 3.7973509 13.00598803 5 14 C5.04092937 16.33297433 5.04241723 18.66705225 5 21 C4.34 21 3.68 21 3 21 C2.67 20.01 2.34 19.02 2 18 C0.02 18 -1.96 18 -4 18 C-3.67 16.35 -3.34 14.7 -3 13 C-2.01 12.67 -1.02 12.34 0 12 C0 10.68 0 9.36 0 8 C0 5.33333333 0 2.66666667 0 0 Z " fill="#5A6361" transform="translate(131,116)"/>
<path d="M0 0 C3.18790659 1.5939533 3.82476886 3.72172366 5 7 C4.505 7.94875 4.01 8.8975 3.5 9.875 C1.71275306 12.75974129 1.71275306 12.75974129 2.4921875 15.0859375 C3.06736706 16.49589093 3.68063119 17.89108005 4.3359375 19.265625 C4.55507812 19.83796875 4.77421875 20.4103125 5 21 C4.67 21.66 4.34 22.32 4 23 C3.34 23 2.68 23 2 23 C1.71125 22.195625 1.4225 21.39125 1.125 20.5625 C0.26737432 17.8673532 0.26737432 17.8673532 -2 17 C-1.67 16.071875 -1.34 15.14375 -1 14.1875 C0.14967004 11.07970709 0.14967004 11.07970709 0 8 C0 6.33333333 0 4.66666667 0 3 C-0.66 3 -1.32 3 -2 3 C-2 2.34 -2 1.68 -2 1 C-1.34 0.67 -0.68 0.34 0 0 Z " fill="#55534B" transform="translate(114,123)"/>
<path d="M0 0 C0.33 0 0.66 0 1 0 C1 1.65 1 3.3 1 5 C1.66 5 2.32 5 3 5 C3.33 4.01 3.66 3.02 4 2 C4.33 2.66 4.66 3.32 5 4 C6.32 4 7.64 4 9 4 C8.34 3.34 7.68 2.68 7 2 C8.32 2 9.64 2 11 2 C11.66 4.31 12.32 6.62 13 9 C11.02 10.32 9.04 11.64 7 13 C7.33 11.02 7.66 9.04 8 7 C7.01 7 6.02 7 5 7 C3.66018514 6.6937566 2.32488113 6.36548445 1 6 C0.67 7.32 0.34 8.64 0 10 C-1.125 6.6875 -1.125 6.6875 -2 3 C-1.34 2.01 -0.68 1.02 0 0 Z " fill="#656A62" transform="translate(115,141)"/>
<path d="M0 0 C0.33 0 0.66 0 1 0 C0.25 6.75 0.25 6.75 -2 9 C-1.67958603 11.60280568 -1.67958603 11.60280568 -1 14 C-1.66 14 -2.32 14 -3 14 C-2.33735914 20.06264222 -2.33735914 20.06264222 -1 26 C-1.99 26 -2.98 26 -4 26 C-4.04898438 24.78183594 -4.09796875 23.56367187 -4.1484375 22.30859375 C-4.22352273 20.68487563 -4.29906802 19.06117874 -4.375 17.4375 C-4.42140625 16.23770508 -4.42140625 16.23770508 -4.46875 15.01367188 C-4.71256564 10.03576917 -5.43631388 5.73555351 -7 1 C-5.68 1 -4.36 1 -3 1 C-3 1.99 -3 2.98 -3 4 C-2.34 4 -1.68 4 -1 4 C-0.67 2.68 -0.34 1.36 0 0 Z " fill="#1B282B" transform="translate(129,63)"/>
<path d="M0 0 C1.98 0 3.96 0 6 0 C6 2.33333333 6 4.66666667 6 7 C6.99 7 7.98 7 9 7 C7 10 7 10 4.875 10.6875 C4.25625 10.790625 3.6375 10.89375 3 11 C2.34 9.68 1.68 8.36 1 7 C0.01 8.485 0.01 8.485 -1 10 C-1.66 10 -2.32 10 -3 10 C-3.33 8.68 -3.66 7.36 -4 6 C-3.34 6 -2.68 6 -2 6 C-2 5.34 -2 4.68 -2 4 C-0.35 3.67 1.3 3.34 3 3 C2.01 2.01 1.02 1.02 0 0 Z " fill="#1B282A" transform="translate(116,167)"/>
<path d="M0 0 C1.32 0.33 2.64 0.66 4 1 C3 3 3 3 1 6 C1.33 6.66 1.66 7.32 2 8 C1.34 8 0.68 8 0 8 C0 8.66 0 9.32 0 10 C-0.66 10 -1.32 10 -2 10 C-2 10.66 -2 11.32 -2 12 C-3.98 12 -5.96 12 -8 12 C-6.625 10.5 -6.625 10.5 -5 9 C-4.34 9 -3.68 9 -3 9 C-3.33 8.34 -3.66 7.68 -4 7 C-4.99 7 -5.98 7 -7 7 C-7 5.68 -7 4.36 -7 3 C-6.01 2.67 -5.02 2.34 -4 2 C-4 2.66 -4 3.32 -4 4 C-3.34 4 -2.68 4 -2 4 C-1.34 2.68 -0.68 1.36 0 0 Z " fill="#676D6A" transform="translate(45,140)"/>
<path d="M0 0 C2.43244498 2.43244498 2.35061499 3.39640539 2.625 6.75 C2.69847656 7.63945313 2.77195312 8.52890625 2.84765625 9.4453125 C3.01806159 12.30287893 3.07531135 15.13816857 3 18 C3.99 18.33 4.98 18.66 6 19 C6 19.99 6 20.98 6 22 C5.34 22 4.68 22 4 22 C4 21.34 4 20.68 4 20 C1.69 20.33 -0.62 20.66 -3 21 C-1.125 17.125 -1.125 17.125 0 16 C0.23363881 14.15108054 0.41303635 12.29511969 0.5625 10.4375 C0.64628906 9.42558594 0.73007813 8.41367188 0.81640625 7.37109375 C0.87699219 6.58863281 0.93757813 5.80617188 1 5 C-0.32 4.34 -1.64 3.68 -3 3 C-2.01 2.01 -1.02 1.02 0 0 Z M-1 2 C0 4 0 4 0 4 Z " fill="#1E2A2C" transform="translate(107,83)"/>
<path d="M0 0 C2.64 0 5.28 0 8 0 C4.375 3 4.375 3 1 3 C0.67 4.32 0.34 5.64 0 7 C-4.44870215 7.39253254 -7.14243493 6.15305957 -11 4 C-11 3.01 -11 2.02 -11 1 C-8.625 0.8125 -8.625 0.8125 -6 1 C-5.34 1.99 -4.68 2.98 -4 4 C-3.01 3.67 -2.02 3.34 -1 3 C-0.67 2.01 -0.34 1.02 0 0 Z " fill="#384546" transform="translate(137,149)"/>
<path d="M0 0 C0.99 0.33 1.98 0.66 3 1 C2.67 1.99 2.34 2.98 2 4 C2.99 4 3.98 4 5 4 C7 5 7 5 8 6 C8.33 4.02 8.66 2.04 9 0 C9.99 0 10.98 0 12 0 C11.30058404 3.14737182 10.23921302 6.02588876 9 9 C8.01 9 7.02 9 6 9 C6 8.34 6 7.68 6 7 C4.02 7 2.04 7 0 7 C0 7.66 0 8.32 0 9 C-0.66 9 -1.32 9 -2 9 C-2.33 6.69 -2.66 4.38 -3 2 C-2.01 1.34 -1.02 0.68 0 0 Z " fill="#283333" transform="translate(78,146)"/>
<path d="M0 0 C0.66 0 1.32 0 2 0 C2.33 0.99 2.66 1.98 3 3 C3.99 2.01 4.98 1.02 6 0 C6.99 0.33 7.98 0.66 9 1 C8.319375 1.5775 7.63875 2.155 6.9375 2.75 C4.76060291 4.76595576 4.76060291 4.76595576 5.0625 7.0625 C6.08714115 9.1800917 7.31288547 10.38623827 9 12 C9 12.66 9 13.32 9 14 C6.37812506 12.95125002 5.20628639 12.35068687 3.75 9.875 C3.5025 9.25625 3.255 8.6375 3 8 C2.34 8 1.68 8 1 8 C1 9.98 1 11.96 1 14 C0.67 14 0.34 14 0 14 C0 9.38 0 4.76 0 0 Z " fill="#85979E" transform="translate(88,273)"/>
<path d="M0 0 C2 1 2 1 3 3 C2.5625 5.125 2.5625 5.125 2 7 C1.34 7 0.68 7 0 7 C0.33 8.32 0.66 9.64 1 11 C-3.75 14 -3.75 14 -6 14 C-6 10.37 -6 6.74 -6 3 C-5.01 3.33 -4.02 3.66 -3 4 C-1.8125 7.0625 -1.8125 7.0625 -1 10 C-1.020625 8.906875 -1.04125 7.81375 -1.0625 6.6875 C-1 3 -1 3 0 0 Z " fill="#404C49" transform="translate(112,143)"/>
<path d="M0 0 C0.33 0.66 0.66 1.32 1 2 C-0.98 2.66 -2.96 3.32 -5 4 C-5 3.34 -5 2.68 -5 2 C-6.65 2.33 -8.3 2.66 -10 3 C-10 3.66 -10 4.32 -10 5 C-10.66 5 -11.32 5 -12 5 C-12 5.99 -12 6.98 -12 8 C-10.68 8 -9.36 8 -8 8 C-8 7.34 -8 6.68 -8 6 C-7.01 6 -6.02 6 -5 6 C-5 7.32 -5 8.64 -5 10 C-8.63 9.67 -12.26 9.34 -16 9 C-15.67 8.34 -15.34 7.68 -15 7 C-14.34 7 -13.68 7 -13 7 C-13.185625 6.38125 -13.37125 5.7625 -13.5625 5.125 C-14 3 -14 3 -13 1 C-10.05859375 0.5859375 -10.05859375 0.5859375 -6.4375 0.375 C-5.23996094 0.30023438 -4.04242188 0.22546875 -2.80859375 0.1484375 C-1.88175781 0.09945312 -0.95492187 0.05046875 0 0 Z " fill="#4E5958" transform="translate(153,140)"/>
<path d="M0 0 C0.99 0.33 1.98 0.66 3 1 C2.67 2.65 2.34 4.3 2 6 C2.99 6.33 3.98 6.66 5 7 C4.34 7 3.68 7 3 7 C3 8.32 3 9.64 3 11 C3.66 11.33 4.32 11.66 5 12 C3.68 12 2.36 12 1 12 C1.66 12.66 2.32 13.32 3 14 C1.68 14 0.36 14 -1 14 C-1.04254356 12.00045254 -1.04080783 9.99958364 -1 8 C-0.67 7.67 -0.34 7.34 0 7 C-1.98 6.34 -3.96 5.68 -6 5 C-5.34 4.67 -4.68 4.34 -4 4 C-4 3.01 -4 2.02 -4 1 C-3.01 1.33 -2.02 1.66 -1 2 C-1 2.99 -1 3.98 -1 5 C-0.34 5 0.32 5 1 5 C0.67 3.35 0.34 1.7 0 0 Z " fill="#3E4847" transform="translate(125,128)"/>
<path d="M0 0 C0.66 0 1.32 0 2 0 C2.33 0.99 2.66 1.98 3 3 C2.01 4.485 2.01 4.485 1 6 C1.99 6.33 2.98 6.66 4 7 C3.67 7.66 3.34 8.32 3 9 C2.34 9 1.68 9 1 9 C1 9.99 1 10.98 1 12 C0.34 12 -0.32 12 -1 12 C-0.67 10.68 -0.34 9.36 0 8 C-4.06024321 10.03802135 -4.06024321 10.03802135 -6 14 C-6.99 13.67 -7.98 13.34 -9 13 C-8.67 12.01 -8.34 11.02 -8 10 C-7.34 10 -6.68 10 -6 10 C-5.67 8.68 -5.34 7.36 -5 6 C-3.68 6 -2.36 6 -1 6 C-1 5.34 -1 4.68 -1 4 C-1.99 3.67 -2.98 3.34 -4 3 C-2.35 3 -0.7 3 1 3 C0.67 2.01 0.34 1.02 0 0 Z " fill="#2B3638" transform="translate(97,126)"/>
<path d="M0 0 C1.98 0 3.96 0 6 0 C5.360625 0.268125 4.72125 0.53625 4.0625 0.8125 C1.66868314 1.88667752 1.66868314 1.88667752 1 5 C0.319375 5.268125 -0.36125 5.53625 -1.0625 5.8125 C-5.23779324 7.5003845 -8.48350375 10.22519651 -12 13 C-11.67 14.32 -11.34 15.64 -11 17 C-11.99 16.67 -12.98 16.34 -14 16 C-14.33 14.02 -14.66 12.04 -15 10 C-14.360625 9.896875 -13.72125 9.79375 -13.0625 9.6875 C-12.0415625 9.3471875 -12.0415625 9.3471875 -11 9 C-10.67 8.01 -10.34 7.02 -10 6 C-6.58442859 4.19733731 -3.83134499 3.781066 0 4 C0 2.68 0 1.36 0 0 Z " fill="#1C2A2C" transform="translate(148,146)"/>
<path d="M0 0 C0.33 0.66 0.66 1.32 1 2 C1.66 2 2.32 2 3 2 C2.67 2.99 2.34 3.98 2 5 C1.01 5 0.02 5 -1 5 C-0.34 7.31 0.32 9.62 1 12 C0.01 12 -0.98 12 -2 12 C-2.66 11.34 -3.32 10.68 -4 10 C-4.99 9.34 -5.98 8.68 -7 8 C-8.33568021 8.32380126 -9.66923011 8.65657551 -11 9 C-11.66 8.34 -12.32 7.68 -13 7 C-7.375 5 -7.375 5 -4 5 C-3.01 4.67 -2.02 4.34 -1 4 C-0.26676204 1.98491642 -0.26676204 1.98491642 0 0 Z " fill="#3B4240" transform="translate(111,124)"/>
<path d="M0 0 C3.4375 0.8125 3.4375 0.8125 7 2 C7.33 2.99 7.66 3.98 8 5 C7.01 5 6.02 5 5 5 C4.34 6.32 3.68 7.64 3 9 C0.69 8.67 -1.62 8.34 -4 8 C-4 7.34 -4 6.68 -4 6 C-3.01 5.67 -2.02 5.34 -1 5 C-0.67 3.35 -0.34 1.7 0 0 Z " fill="#808480" transform="translate(99,106)"/>
<path d="M0 0 C0.99 0 1.98 0 3 0 C3 3.96 3 7.92 3 12 C3.99 12 4.98 12 6 12 C6 12.99 6 13.98 6 15 C4.02 15 2.04 15 0 15 C0 10.05 0 5.1 0 0 Z " fill="#5B686D" transform="translate(79,272)"/>
<path d="M0 0 C2.31 0 4.62 0 7 0 C7 0.33 7 0.66 7 1 C5.35 1 3.7 1 2 1 C2 2.32 2 3.64 2 5 C3.65 5 5.3 5 7 5 C7 5.66 7 6.32 7 7 C5.35 7 3.7 7 2 7 C2 8.65 2 10.3 2 12 C3.65 12 5.3 12 7 12 C7 12.66 7 13.32 7 14 C4.69 14 2.38 14 0 14 C0 9.38 0 4.76 0 0 Z " fill="#8E9DA3" transform="translate(162,273)"/>
<path d="M0 0 C1.5 1.375 1.5 1.375 3 3 C3 3.66 3 4.32 3 5 C3.99 5 4.98 5 6 5 C6 6.65 6 8.3 6 10 C1.56486311 10 -1.73383684 9.13764351 -6 8 C-5.34 6.35 -4.68 4.7 -4 3 C-3.01 3.66 -2.02 4.32 -1 5 C-1 4.01 -1 3.02 -1 2 C-0.67 1.34 -0.34 0.68 0 0 Z " fill="#384441" transform="translate(111,155)"/>
<path d="M0 0 C1.0625 1.875 1.0625 1.875 2 4 C1.67 4.66 1.34 5.32 1 6 C2.32 6 3.64 6 5 6 C5.33 7.32 5.66 8.64 6 10 C5.34 10 4.68 10 4 10 C4.33 11.32 4.66 12.64 5 14 C3.35 14.33 1.7 14.66 0 15 C0 14.01 0 13.02 0 12 C0.99 12 1.98 12 3 12 C1.36587557 10.29159719 0.13093906 9.06546953 -2 8 C-2 7.01 -2 6.02 -2 5 C-2.66 4.67 -3.32 4.34 -4 4 C-2.68 2.68 -1.36 1.36 0 0 Z " fill="#253337" transform="translate(82,131)"/>
<path d="M0 0 C2.25 1.4375 2.25 1.4375 3.0625 3.5625 C3.124375 4.18125 3.18625 4.8 3.25 5.4375 C2.26 5.4375 1.27 5.4375 0.25 5.4375 C-0.08 6.0975 -0.41 6.7575 -0.75 7.4375 C-2.07 7.4375 -3.39 7.4375 -4.75 7.4375 C-6.5 4.9375 -6.5 4.9375 -7.75 2.4375 C-3.50394106 -0.71671522 -3.50394106 -0.71671522 0 0 Z " fill="#7E8383" transform="translate(141.75,113.5625)"/>
<path d="M0 0 C2.00720923 0.28674418 4.0085944 0.61866701 6 1 C2.06036945 5.55519783 -1.26928904 7.15451681 -7 9 C-7 8.01 -7 7.02 -7 6 C-8.65 6.33 -10.3 6.66 -12 7 C-11.67 6.01 -11.34 5.02 -11 4 C-9.0625 3.25 -9.0625 3.25 -7 3 C-6.34 3.33 -5.68 3.66 -5 4 C-5 4.66 -5 5.32 -5 6 C-4.01 6 -3.02 6 -2 6 C-1.855625 5.195625 -1.71125 4.39125 -1.5625 3.5625 C-1 1 -1 1 0 0 Z " fill="#192526" transform="translate(89,149)"/>
<path d="M0 0 C2.475 0.495 2.475 0.495 5 1 C4.01 1.495 4.01 1.495 3 2 C3.66 2.66 4.32 3.32 5 4 C5.99 3.67 6.98 3.34 8 3 C8 3.66 8 4.32 8 5 C11.465 4.505 11.465 4.505 15 4 C11.62923316 6.24717789 8.96143076 7.18039364 5 8 C2.0625 7.125 2.0625 7.125 0 6 C0 4.02 0 2.04 0 0 Z " fill="#2F3B3D" transform="translate(96,99)"/>
<path d="M0 0 C0.78375 0.185625 1.5675 0.37125 2.375 0.5625 C4.97089775 1.25962266 4.97089775 1.25962266 7 0 C7 0.66 7 1.32 7 2 C8.32 2.66 9.64 3.32 11 4 C10.01 4.495 10.01 4.495 9 5 C9.99 5.66 10.98 6.32 12 7 C9.18263828 7.78260048 7.54030762 8.19511109 4.75 7.1875 C3 6 3 6 2 4 C1.34 3.67 0.68 3.34 0 3 C0 2.01 0 1.02 0 0 Z " fill="#293737" transform="translate(108,163)"/>
<path d="M0 0 C0.66 0.33 1.32 0.66 2 1 C2.625 3.5625 2.625 3.5625 3 6 C2.01 6.495 2.01 6.495 1 7 C1 7.66 1 8.32 1 9 C-1.90600261 10.25664978 -3.79604584 11 -7 11 C-7.66 10.34 -8.32 9.68 -9 9 C-7.35 9 -5.7 9 -4 9 C-4.33 7.68 -4.66 6.36 -5 5 C-4.360625 4.731875 -3.72125 4.46375 -3.0625 4.1875 C-0.66868314 3.11332248 -0.66868314 3.11332248 0 0 Z " fill="#3D4647" transform="translate(95,123)"/>
<path d="M0 0 C2.97 0.495 2.97 0.495 6 1 C6 4.76687864 5.76462683 5.91190305 4 9 C2.0625 8.25 2.0625 8.25 0 7 C-1.23843794 4.04680182 -1.04187157 3.12561472 0 0 Z " fill="#7C867E" transform="translate(124,93)"/>
<path d="M0 0 C1.10370043 3.3111013 0.92673641 5.24748949 0.5625 8.6875 C0.40974609 10.17830078 0.40974609 10.17830078 0.25390625 11.69921875 C0.12822266 12.83810547 0.12822266 12.83810547 0 14 C1.32 13.01 2.64 12.02 4 11 C4.66 11.33 5.32 11.66 6 12 C5.67 13.98 5.34 15.96 5 18 C5.66 18.33 6.32 18.66 7 19 C6.01 19 5.02 19 4 19 C3.34 18.01 2.68 17.02 2 16 C1.01 16.99 0.02 17.98 -1 19 C-2.01162262 12.81786177 -2.90244859 5.80489719 0 0 Z " fill="#293635" transform="translate(106,143)"/>
<path d="M0 0 C2.475 0.495 2.475 0.495 5 1 C5.33 3.31 5.66 5.62 6 8 C4.68 8.33 3.36 8.66 2 9 C2 8.34 2 7.68 2 7 C1.34 7 0.68 7 0 7 C0 4.69 0 2.38 0 0 Z " fill="#9F9D96" transform="translate(121,54)"/>
<path d="M0 0 C2.64 0 5.28 0 8 0 C8 0.66 8 1.32 8 2 C7.01 2 6.02 2 5 2 C5 5.96 5 9.92 5 14 C4.01 14.495 4.01 14.495 3 15 C3 10.71 3 6.42 3 2 C2.01 2 1.02 2 0 2 C0 1.34 0 0.68 0 0 Z " fill="#778A91" transform="translate(54,272)"/>
<path d="M0 0 C2.125 6.75 2.125 6.75 1 9 C0.34 9 -0.32 9 -1 9 C-1.33 9.66 -1.66 10.32 -2 11 C-2 9.02 -2 7.04 -2 5 C-2.99 5 -3.98 5 -5 5 C-5 3.68 -5 2.36 -5 1 C-3 0 -3 0 0 0 Z " fill="#5E6969" transform="translate(135,143)"/>
<path d="M0 0 C3.57104439 1.87949705 5.54744301 3.17053157 7 7 C6.34 7 5.68 7 5 7 C5.66 10.63 6.32 14.26 7 18 C3.87218946 14.87218946 3.63421821 14.60766832 3.375 10.5625 C3.1636574 7.5886077 2.7993926 4.87650287 2 2 C1.34 2 0.68 2 0 2 C0 1.34 0 0.68 0 0 Z " fill="#444C4B" transform="translate(130,114)"/>
<path d="M0 0 C2.672336 3.56311466 3.77263971 5.84585747 5 10 C3.68 10 2.36 10 1 10 C0.01 10.99 -0.98 11.98 -2 13 C-1.34 8.71 -0.68 4.42 0 0 Z " fill="#1C292A" transform="translate(102,59)"/>
<path d="M0 0 C2.64 0 5.28 0 8 0 C7.7834375 0.928125 7.7834375 0.928125 7.5625 1.875 C6.77943337 6.22537017 6.40153341 10.60021907 6 15 C5.34 15 4.68 15 4 15 C4 11.04 4 7.08 4 3 C4.99 3 5.98 3 7 3 C7 2.34 7 1.68 7 1 C4.69 1 2.38 1 0 1 C0 0.67 0 0.34 0 0 Z " fill="#141C1F" transform="translate(55,271)"/>
<path d="M0 0 C1.27617188 0.02320313 2.55234375 0.04640625 3.8671875 0.0703125 C5.78917969 0.09738281 5.78917969 0.09738281 7.75 0.125 C9.23113281 0.15980469 9.23113281 0.15980469 10.7421875 0.1953125 C10.7421875 0.8553125 10.7421875 1.5153125 10.7421875 2.1953125 C10.0821875 2.1953125 9.4221875 2.1953125 8.7421875 2.1953125 C8.4121875 3.8453125 8.0821875 5.4953125 7.7421875 7.1953125 C7.0821875 6.8653125 6.4221875 6.5353125 5.7421875 6.1953125 C6.0721875 4.8753125 6.4021875 3.5553125 6.7421875 2.1953125 C2.7821875 2.1953125 -1.1778125 2.1953125 -5.2578125 2.1953125 C-3.2578125 0.1953125 -3.2578125 0.1953125 0 0 Z " fill="#4C4F4C" transform="translate(41.2578125,138.8046875)"/>
<path d="M0 0 C1.9375 0.5625 1.9375 0.5625 4 2 C4.75 5.625 4.75 5.625 5 9 C3.35 8.67 1.7 8.34 0 8 C0 5.36 0 2.72 0 0 Z " fill="#6C736C" transform="translate(126,77)"/>
<path d="M0 0 C1.32 0.33 2.64 0.66 4 1 C4.33 5.29 4.66 9.58 5 14 C4.34 14 3.68 14 3 14 C1.23384882 9.29026351 0.51405169 4.96916636 0 0 Z " fill="#2D383B" transform="translate(155,272)"/>
<path d="M0 0 C3 1 3 1 3.9375 2.75 C4 5 4 5 2.3125 7.75 C0 10 0 10 -4 10 C-4 9.34 -4 8.68 -4 8 C-3.34 7.67 -2.68 7.34 -2 7 C-1.26924352 4.6859378 -0.59861742 2.35171131 0 0 Z " fill="#1B2629" transform="translate(159,139)"/>
<path d="M0 0 C0 0.33 0 0.66 0 1 C-1.7015625 1.4640625 -1.7015625 1.4640625 -3.4375 1.9375 C-6.78775099 2.62924531 -6.78775099 2.62924531 -8 4 C-8.34229288 7.16620913 -8.25632099 8.60483847 -6.5 11.3125 C-6.005 11.869375 -5.51 12.42625 -5 13 C-6.875 12.6875 -6.875 12.6875 -9 12 C-11 9 -11 9 -10.8125 6 C-9.07855969 -0.40224116 -6.31983531 -0.35772653 0 0 Z " fill="#96A1A5" transform="translate(129,273)"/>
<path d="M0 0 C1.32 0 2.64 0 4 0 C4.86580287 1.93232821 5.71729941 3.87107194 6.5625 5.8125 C7.27599609 7.43091797 7.27599609 7.43091797 8.00390625 9.08203125 C9 12 9 12 8 15 C5.74402173 12.74402173 5.03425808 10.95396133 3.875 8 C3.34519531 6.6696875 3.34519531 6.6696875 2.8046875 5.3125 C2 3 2 3 2 1 C1.34 0.67 0.68 0.34 0 0 Z " fill="#232E32" transform="translate(68,272)"/>
<path d="M0 0 C0.33 0.66 0.66 1.32 1 2 C1.66 2 2.32 2 3 2 C3.33 3.32 3.66 4.64 4 6 C3.01 6.66 2.02 7.32 1 8 C0.67 7.01 0.34 6.02 0 5 C-1.97536745 5.34786708 -1.97536745 5.34786708 -4 6 C-4.33 6.66 -4.66 7.32 -5 8 C-5.33 7.01 -5.66 6.02 -6 5 C-4.02 3.35 -2.04 1.7 0 0 Z " fill="#67716E" transform="translate(98,115)"/>
<path d="M0 0 C2.625 -0.1875 2.625 -0.1875 5 0 C6.4606285 2.64738916 7 3.89448334 7 7 C6.34 7 5.68 7 5 7 C4.67 6.34 4.34 5.68 4 5 C3.34 5 2.68 5 2 5 C2 4.01 2 3.02 2 2 C1.34 2 0.68 2 0 2 C0 2.66 0 3.32 0 4 C-0.66 3.67 -1.32 3.34 -2 3 C-1.34 2.01 -0.68 1.02 0 0 Z " fill="#4B5756" transform="translate(126,154)"/>
<path d="M0 0 C0.86625 0.4640625 0.86625 0.4640625 1.75 0.9375 C3.84294184 1.92583364 5.74535275 2.5168613 8 3 C8.33 2.01 8.66 1.02 9 0 C9.33 1.32 9.66 2.64 10 4 C6.5647952 6.29013653 5.014669 6.17842973 1 6 C0.67 4.02 0.34 2.04 0 0 Z " fill="#8E918D" transform="translate(32,145)"/>
<path d="M0 0 C0.66 0 1.32 0 2 0 C0.92657227 2.59411701 0.30637235 3.81077002 -2.125 5.3125 C-4.42942668 6.99261551 -4.42942668 6.99261551 -4.25 10.6875 C-4.1675 11.780625 -4.085 12.87375 -4 14 C-4.66 14 -5.32 14 -6 14 C-6 10.7 -6 7.4 -6 4 C-4.35 3.67 -2.7 3.34 -1 3 C-0.67 2.01 -0.34 1.02 0 0 Z " fill="#141E20" transform="translate(144,120)"/>
<path d="M0 0 C0.99 0.495 0.99 0.495 2 1 C2.680625 1.268125 3.36125 1.53625 4.0625 1.8125 C6 3 6 3 6.75 5.125 C6.8325 5.74375 6.915 6.3625 7 7 C8.32 6.01 9.64 5.02 11 4 C11.66 4.33 12.32 4.66 13 5 C10.6875 7.0625 10.6875 7.0625 8 9 C7.01 8.67 6.02 8.34 5 8 C4.67 7.01 4.34 6.02 4 5 C1.98491642 4.26676204 1.98491642 4.26676204 0 4 C0 2.68 0 1.36 0 0 Z " fill="#1C292A" transform="translate(61,145)"/>
<path d="M0 0 C1.67542976 0.28604898 3.34385343 0.61781233 5 1 C5.33 1.99 5.66 2.98 6 4 C6.66 4.33 7.32 4.66 8 5 C7.67 5.99 7.34 6.98 7 8 C6.34 8 5.68 8 5 8 C4.67 7.01 4.34 6.02 4 5 C3.34 4.835 2.68 4.67 2 4.5 C1.34 4.335 0.68 4.17 0 4 C-0.33 3.01 -0.66 2.02 -1 1 C-0.67 0.67 -0.34 0.34 0 0 Z " fill="#4D5957" transform="translate(64,142)"/>
<path d="M0 0 C4.29 0 8.58 0 13 0 C13 0.66 13 1.32 13 2 C10 4 10 4 6.5 3.8125 C3 3 3 3 0 0 Z " fill="#1F2A2C" transform="translate(34,151)"/>
<path d="M0 0 C0.33 0 0.66 0 1 0 C1.62457273 3.43515002 2 6.49064814 2 10 C1.01 10.33 0.02 10.66 -1 11 C-1.33 10.01 -1.66 9.02 -2 8 C-3.65 8 -5.3 8 -7 8 C-7 7.67 -7 7.34 -7 7 C-5.35 7 -3.7 7 -2 7 C-1.34 4.69 -0.68 2.38 0 0 Z " fill="#2C3836" transform="translate(120,98)"/>
<path d="M0 0 C0.66 0 1.32 0 2 0 C2.33 2.64 2.66 5.28 3 8 C1.68 8 0.36 8 -1 8 C-1 7.01 -1 6.02 -1 5 C-1.99 4.67 -2.98 4.34 -4 4 C-2.68 3.67 -1.36 3.34 0 3 C0 2.01 0 1.02 0 0 Z " fill="#424A49" transform="translate(128,86)"/>
<path d="M0 0 C0.66 0.33 1.32 0.66 2 1 C1.67 1.66 1.34 2.32 1 3 C1.99 3 2.98 3 4 3 C4 5 4 5 2.6875 6.625 C1 8 1 8 -2 8 C-3.125 4.25 -3.125 4.25 -2 2 C-1.34 2 -0.68 2 0 2 C0 1.34 0 0.68 0 0 Z " fill="#202E2F" transform="translate(110,166)"/>
<path d="M0 0 C1.32 0 2.64 0 4 0 C4 0.99 4 1.98 4 3 C3.34 3 2.68 3 2 3 C2 3.99 2 4.98 2 6 C1.01 6 0.02 6 -1 6 C-1 5.34 -1 4.68 -1 4 C-2.65 4.33 -4.3 4.66 -6 5 C-5.67 4.34 -5.34 3.68 -5 3 C-3.68 3 -2.36 3 -1 3 C-0.67 2.01 -0.34 1.02 0 0 Z " fill="#9A9993" transform="translate(155,139)"/>
<path d="M0 0 C0.66 0.66 1.32 1.32 2 2 C1.625 4.625 1.625 4.625 1 7 C0.34 7 -0.32 7 -1 7 C-1.33 8.65 -1.66 10.3 -2 12 C-2.99 11.67 -3.98 11.34 -5 11 C-3.35 7.37 -1.7 3.74 0 0 Z " fill="#323C3C" transform="translate(91,115)"/>
<path d="M0 0 C1.65 0 3.3 0 5 0 C5 3 5 3 4 5 C1.69 5 -0.62 5 -3 5 C-2.67 4.34 -2.34 3.68 -2 3 C-1.34 3 -0.68 3 0 3 C0 2.01 0 1.02 0 0 Z " fill="#0F1A1C" transform="translate(47,150)"/>
<path d="M0 0 C1.41377341 2.63904371 2.37240135 5.07120629 3 8 C2.01 8.33 1.02 8.66 0 9 C-0.99 6.36 -1.98 3.72 -3 1 C-2.01 0.67 -1.02 0.34 0 0 Z " fill="#6F5951" transform="translate(118,134)"/>
<path d="M0 0 C0.66 0.66 1.32 1.32 2 2 C1.01 2 0.02 2 -1 2 C-1 3.98 -1 5.96 -1 8 C-1.99 8 -2.98 8 -4 8 C-4.66 6.68 -5.32 5.36 -6 4 C-3.94766315 1.7522025 -2.99332739 0.9977758 0 0 Z " fill="#63645C" transform="translate(125,134)"/>
<path d="M0 0 C0.99 0 1.98 0 3 0 C3 2.31 3 4.62 3 7 C1.35 6.67 -0.3 6.34 -2 6 C-1.49396008 3.83125748 -1.00016187 2.00032373 0 0 Z " fill="#AFADA4" transform="translate(147,88)"/>
<path d="M0 0 C0.66 0 1.32 0 2 0 C2.66 3.96 3.32 7.92 4 12 C3.01 12.495 3.01 12.495 2 13 C2 12.34 2 11.68 2 11 C1.34 11 0.68 11 0 11 C0 7.37 0 3.74 0 0 Z " fill="#1B2728" transform="translate(132,80)"/>
<path d="M0 0 C3.875 0.875 3.875 0.875 5 2 C5.35897436 8.46153846 5.35897436 8.46153846 3 12 C2.34 11.67 1.68 11.34 1 11 C1.20625 9.9275 1.4125 8.855 1.625 7.75 C1.9876191 4.12380904 1.98362069 2.91708924 0 0 Z " fill="#2D3B3F" transform="translate(130,273)"/>
<path d="M0 0 C1.32 0 2.64 0 4 0 C4.66 2.31 5.32 4.62 6 7 C4.02 8.32 2.04 9.64 0 11 C0.33 9.35 0.66 7.7 1 6 C1.99 5.67 2.98 5.34 4 5 C2.68 3.35 1.36 1.7 0 0 Z " fill="#5A625C" transform="translate(122,143)"/>
<path d="M0 0 C0.28875 0.639375 0.5775 1.27875 0.875 1.9375 C1.82823451 4.15206079 1.82823451 4.15206079 4 5 C2.02 5 0.04 5 -2 5 C-2 5.99 -2 6.98 -2 8 C-2.99 7.67 -3.98 7.34 -5 7 C-4.34 5.02 -3.68 3.04 -3 1 C-2.01 1.33 -1.02 1.66 0 2 C0 1.34 0 0.68 0 0 Z " fill="#6E7470" transform="translate(107,109)"/>
<path d="M0 0 C0.99 0.33 1.98 0.66 3 1 C2.67 1.66 2.34 2.32 2 3 C2.99 3 3.98 3 5 3 C5 4.32 5 5.64 5 7 C3.35 7 1.7 7 0 7 C0 4.69 0 2.38 0 0 Z " fill="#9D9C95" transform="translate(92,59)"/>
<path d="M0 0 C0.99 0 1.98 0 3 0 C1.55746343 3.36591866 -0.33264727 5.51047079 -3 8 C-3.66 7.67 -4.32 7.34 -5 7 C-5 6.34 -5 5.68 -5 5 C-4.34 5 -3.68 5 -3 5 C-2.67 4.01 -2.34 3.02 -2 2 C-1.34 2 -0.68 2 0 2 C0 1.34 0 0.68 0 0 Z " fill="#515B56" transform="translate(104,96)"/>
<path d="M0 0 C0.66 0 1.32 0 2 0 C2.33 0.99 2.66 1.98 3 3 C2.34 3 1.68 3 1 3 C1.66264086 9.06264222 1.66264086 9.06264222 3 15 C2.01 15 1.02 15 0 15 C0 10.05 0 5.1 0 0 Z " fill="#293436" transform="translate(125,74)"/>
<path d="M0 0 C1.0326802 2.78823655 1.04509293 3.8677274 0.0625 6.75 C-0.288125 7.4925 -0.63875 8.235 -1 9 C-2.32 8.67 -3.64 8.34 -5 8 C-5 7.01 -5 6.02 -5 5 C-3.68 5 -2.36 5 -1 5 C-0.67 3.35 -0.34 1.7 0 0 Z " fill="#767A74" transform="translate(98,61)"/>
<path d="M0 0 C1.35439668 2.70879335 1.06501451 5.00933268 1 8 C3.97 8.495 3.97 8.495 7 9 C7 9.33 7 9.66 7 10 C1.57142857 10.36190476 1.57142857 10.36190476 -0.875 8.8125 C-2.38332602 6.38241919 -2.36023622 4.80984248 -2 2 C-1.34 1.34 -0.68 0.68 0 0 Z " fill="#333D40" transform="translate(122,275)"/>
<path d="M0 0 C0.33 0.66 0.66 1.32 1 2 C-0.65909182 6.10406925 -2.21704034 8.65195608 -6 11 C-5.75 8.125 -5.75 8.125 -5 5 C-3 3.8125 -3 3.8125 -1 3 C-0.67 2.01 -0.34 1.02 0 0 Z " fill="#142123" transform="translate(132,163)"/>
<path d="M0 0 C0.99 0.33 1.98 0.66 3 1 C3 2.32 3 3.64 3 5 C2.34 5 1.68 5 1 5 C1.66 6.65 2.32 8.3 3 10 C2.01 10.33 1.02 10.66 0 11 C0 7.37 0 3.74 0 0 Z " fill="#374340" transform="translate(106,146)"/>
<path d="M0 0 C0.33 1.32 0.66 2.64 1 4 C-2.81756824 5.37432457 -6.07255329 4.67975039 -10 4 C-6.375 1 -6.375 1 -3 1 C-3 1.66 -3 2.32 -3 3 C-2.01 3 -1.02 3 0 3 C0 2.01 0 1.02 0 0 Z " fill="#6A706E" transform="translate(157,142)"/>
<path d="M0 0 C0.66 1.32 1.32 2.64 2 4 C1.34 4 0.68 4 0 4 C0.33 5.32 0.66 6.64 1 8 C-0.65 8.33 -2.3 8.66 -4 9 C-4 8.01 -4 7.02 -4 6 C-3.01 6 -2.02 6 -1 6 C-1.99 4.68 -2.98 3.36 -4 2 C-2.68 1.34 -1.36 0.68 0 0 Z " fill="#2C393B" transform="translate(86,137)"/>
<path d="M0 0 C0.66 0.33 1.32 0.66 2 1 C1.67 1.99 1.34 2.98 1 4 C1.66 4.66 2.32 5.32 3 6 C2.34 6 1.68 6 1 6 C1 6.66 1 7.32 1 8 C0.34 8 -0.32 8 -1 8 C-1.66 5.69 -2.32 3.38 -3 1 C-2.01 0.67 -1.02 0.34 0 0 Z " fill="#6F6F66" transform="translate(113,128)"/>
<path d="M0 0 C3.01327566 1.50663783 3.61056618 4.03166411 5 7 C4.01 7.66 3.02 8.32 2 9 C0 6 0 6 0 3 C-0.66 3 -1.32 3 -2 3 C-2 2.34 -2 1.68 -2 1 C-1.34 0.67 -0.68 0.34 0 0 Z " fill="#444F4A" transform="translate(114,123)"/>
<path d="M0 0 C2.64 0 5.28 0 8 0 C8.33 2.31 8.66 4.62 9 7 C7.35 7 5.7 7 4 7 C4.33 5.68 4.66 4.36 5 3 C3.68 3 2.36 3 1 3 C0.67 2.01 0.34 1.02 0 0 Z " fill="#455050" transform="translate(116,121)"/>
<path d="M0 0 C0.99 0.66 1.98 1.32 3 2 C0.66153846 7.66153846 0.66153846 7.66153846 -2.6875 9.375 C-3.450625 9.58125 -4.21375 9.7875 -5 10 C-4.67 8.68 -4.34 7.36 -4 6 C-3.01 6.33 -2.02 6.66 -1 7 C-1.020625 6.030625 -1.04125 5.06125 -1.0625 4.0625 C-1 1 -1 1 0 0 Z " fill="#243030" transform="translate(126,165)"/>
<path d="M0 0 C0.99 0 1.98 0 3 0 C3 0.66 3 1.32 3 2 C4.65 2.33 6.3 2.66 8 3 C8 3.99 8 4.98 8 6 C8.66 6.33 9.32 6.66 10 7 C9.01 7.33 8.02 7.66 7 8 C6.67 7.01 6.34 6.02 6 5 C4.7625 4.505 4.7625 4.505 3.5 4 C2.2625 3.505 2.2625 3.505 1 3 C0.67 2.01 0.34 1.02 0 0 Z " fill="#313E3E" transform="translate(61,144)"/>
<path d="M0 0 C0.66 0 1.32 0 2 0 C2 0.99 2 1.98 2 3 C2.99 3.33 3.98 3.66 5 4 C5 4.99 5 5.98 5 7 C4.34 7.66 3.68 8.32 3 9 C0.23776722 6.23776722 0.42143709 3.79293383 0 0 Z " fill="#596160" transform="translate(128,135)"/>
<path d="M0 0 C0.66 1.32 1.32 2.64 2 4 C1.01 4.99 0.02 5.98 -1 7 C-2.32 6.34 -3.64 5.68 -5 5 C-5 4.34 -5 3.68 -5 3 C-2.5 1.375 -2.5 1.375 0 0 Z " fill="#7B817C" transform="translate(130,116)"/>
<path d="M0 0 C0.99 0.33 1.98 0.66 3 1 C3 1.66 3 2.32 3 3 C4.32 2.67 5.64 2.34 7 2 C7.33 2.66 7.66 3.32 8 4 C7.34 4.66 6.68 5.32 6 6 C4.68 6 3.36 6 2 6 C0.25 3.5 0.25 3.5 -1 1 C-0.67 0.67 -0.34 0.34 0 0 Z " fill="#616B6C" transform="translate(135,115)"/>
<path d="M0 0 C0.99 1.485 0.99 1.485 2 3 C2.99 3.66 3.98 4.32 5 5 C4.01 5.495 4.01 5.495 3 6 C2.835 7.155 2.67 8.31 2.5 9.5 C2.335 10.655 2.17 11.81 2 13 C1.01 13.495 1.01 13.495 0 14 C0 9.38 0 4.76 0 0 Z " fill="#343A3A" transform="translate(145,96)"/>
<path d="M0 0 C6.75 -0.125 6.75 -0.125 9 1 C9 2.65 9 4.3 9 6 C7.5 4.625 7.5 4.625 6 3 C6 2.34 6 1.68 6 1 C4.02 1.99 2.04 2.98 0 4 C0 2.68 0 1.36 0 0 Z " fill="#515A54" transform="translate(98,88)"/>
<path d="M0 0 C2.91227269 3.28804981 4.49701212 5.59885603 5 10 C-0.73529412 4.70588235 -0.73529412 4.70588235 -1 1 C-0.67 0.67 -0.34 0.34 0 0 Z " fill="#243237" transform="translate(93,277)"/>
<path d="M0 0 C2.97 0 5.94 0 9 0 C9.33 0.99 9.66 1.98 10 3 C6.37 2.67 2.74 2.34 -1 2 C-0.67 1.34 -0.34 0.68 0 0 Z " fill="#323A3D" transform="translate(108,271)"/>
<path d="M0 0 C2.97 0.495 2.97 0.495 6 1 C6 1.99 6 2.98 6 4 C3.69 4 1.38 4 -1 4 C-1.33 3.34 -1.66 2.68 -2 2 C-1.34 2 -0.68 2 0 2 C0 1.34 0 0.68 0 0 Z " fill="#343E3C" transform="translate(52,139)"/>
<path d="M0 0 C0 0.66 0 1.32 0 2 C-1.32 2 -2.64 2 -4 2 C-4 2.66 -4 3.32 -4 4 C-3.34 4 -2.68 4 -2 4 C-1.67 5.32 -1.34 6.64 -1 8 C-2.32 7.67 -3.64 7.34 -5 7 C-5.33 5.35 -5.66 3.7 -6 2 C-2.25 0 -2.25 0 0 0 Z " fill="#747973" transform="translate(120,113)"/>
<path d="M0 0 C0.66 0 1.32 0 2 0 C2 2.97 2 5.94 2 9 C1.34 9 0.68 9 0 9 C0 8.34 0 7.68 0 7 C-0.66 7 -1.32 7 -2 7 C-1.42415568 4.61435923 -0.77772405 2.33317216 0 0 Z " fill="#8A857F" transform="translate(144,104)"/>
<path d="M0 0 C2.125 0.375 2.125 0.375 4 1 C4.625 3.375 4.625 3.375 5 6 C4.34 6.66 3.68 7.32 3 8 C2 5 2 5 3 2 C2.01 2 1.02 2 0 2 C-0.33 2.99 -0.66 3.98 -1 5 C-1.33 4.01 -1.66 3.02 -2 2 C-1.34 1.34 -0.68 0.68 0 0 Z " fill="#848278" transform="translate(147,86)"/>
<path d="M0 0 C2.39763185 2.39763185 2.34280586 3.33273498 2.625 6.625 C2.69976562 7.44226563 2.77453125 8.25953125 2.8515625 9.1015625 C2.92503906 10.04128906 2.92503906 10.04128906 3 11 C2.34 10.34 1.68 9.68 1 9 C1 7.68 1 6.36 1 5 C-0.32 4.34 -1.64 3.68 -3 3 C-2.01 2.01 -1.02 1.02 0 0 Z M-1 2 C0 4 0 4 0 4 Z " fill="#172325" transform="translate(107,83)"/>
<path d="M0 0 C0.99 1.485 0.99 1.485 2 3 C2.99 2.01 3.98 1.02 5 0 C5.99 0.33 6.98 0.66 8 1 C6.35 2.98 4.7 4.96 3 7 C2.67 6.34 2.34 5.68 2 5 C1.34 5 0.68 5 0 5 C0 3.35 0 1.7 0 0 Z " fill="#697A80" transform="translate(89,273)"/>
<path d="M0 0 C1.60372657 4.00931642 0.38691773 7.05823382 -1 11 C-1.66 11.66 -2.32 12.32 -3 13 C-4.24546405 10.50907189 -3.7767578 9.58919267 -3 7 C-2.34 7 -1.68 7 -1 7 C-0.67 4.69 -0.34 2.38 0 0 Z " fill="#444F4D" transform="translate(101,58)"/>
<path d="M0 0 C2.64 0 5.28 0 8 0 C8.33 0.99 8.66 1.98 9 3 C5.7 2.67 2.4 2.34 -1 2 C-0.67 1.34 -0.34 0.68 0 0 Z " fill="#242E31" transform="translate(163,271)"/>
<path d="M0 0 C0.66 0 1.32 0 2 0 C2 0.66 2 1.32 2 2 C2.66 2.33 3.32 2.66 4 3 C3.67 3.99 3.34 4.98 3 6 C0.9375 6.6875 0.9375 6.6875 -1 7 C-0.67 4.69 -0.34 2.38 0 0 Z " fill="#7A7F78" transform="translate(101,92)"/>
<path d="M0 0 C0.99 0.33 1.98 0.66 3 1 C2.67 2.32 2.34 3.64 2 5 C0.35 4.67 -1.3 4.34 -3 4 C-3 3.34 -3 2.68 -3 2 C-2.01 1.34 -1.02 0.68 0 0 Z " fill="#B5B0A8" transform="translate(36,143)"/>
<path d="M0 0 C0.99 0.33 1.98 0.66 3 1 C3.33 1.99 3.66 2.98 4 4 C3.01 4 2.02 4 1 4 C0.67 4.99 0.34 5.98 0 7 C-0.66 6.01 -1.32 5.02 -2 4 C-1.34 2.68 -0.68 1.36 0 0 Z " fill="#737971" transform="translate(119,123)"/>
<path d="M0 0 C2.31 0.33 4.62 0.66 7 1 C6.67 2.32 6.34 3.64 6 5 C4.68 4.67 3.36 4.34 2 4 C2 3.01 2 2.02 2 1 C1.34 0.67 0.68 0.34 0 0 Z " fill="#505958" transform="translate(116,116)"/>
<path d="M0 0 C0.99 0.66 1.98 1.32 3 2 C2.67 3.32 2.34 4.64 2 6 C2.66 6.33 3.32 6.66 4 7 C2.35 7 0.7 7 -1 7 C-0.67 6.01 -0.34 5.02 0 4 C-0.66 4 -1.32 4 -2 4 C-1.34 2.68 -0.68 1.36 0 0 Z " fill="#505957" transform="translate(96,105)"/>
<path d="M0 0 C0.99 0.33 1.98 0.66 3 1 C2.67 1.66 2.34 2.32 2 3 C2.99 3.33 3.98 3.66 5 4 C4.01 4.33 3.02 4.66 2 5 C1.26676204 7.01508358 1.26676204 7.01508358 1 9 C1 7.68 1 6.36 1 5 C0.34 4.67 -0.32 4.34 -1 4 C-0.67 2.68 -0.34 1.36 0 0 Z " fill="#415250" transform="translate(121,101)"/>
<path d="M0 0 C2 3.75 2 3.75 2 6 C1.34 6 0.68 6 0 6 C0 6.66 0 7.32 0 8 C-0.99 7.67 -1.98 7.34 -3 7 C-2.01 4.69 -1.02 2.38 0 0 Z " fill="#303A3E" transform="translate(154,278)"/>
<path d="M0 0 C0.99 0.33 1.98 0.66 3 1 C3 1.66 3 2.32 3 3 C3.66 3 4.32 3 5 3 C5.33 3.99 5.66 4.98 6 6 C5.67 6.66 5.34 7.32 5 8 C4.34 8 3.68 8 3 8 C2.01 5.36 1.02 2.72 0 0 Z " fill="#354247" transform="translate(146,274)"/>
<path d="M0 0 C1.65 0 3.3 0 5 0 C4.0409375 1.11375 4.0409375 1.11375 3.0625 2.25 C1.21666593 4.7111121 0.43930826 6.03466926 0 9 C-1.125 3.375 -1.125 3.375 0 0 Z " fill="#171D21" transform="translate(123,274)"/>
<path d="M0 0 C0.33 0.66 0.66 1.32 1 2 C3.02463255 2.65213292 3.02463255 2.65213292 5 3 C3.68799596 4.35432675 2.35368596 5.68733482 1 7 C0.67 7 0.34 7 0 7 C0 4.69 0 2.38 0 0 Z " fill="#384748" transform="translate(74,142)"/>
<path d="M0 0 C1.98 0.99 1.98 0.99 4 2 C4 2.66 4 3.32 4 4 C4.99 4.33 5.98 4.66 7 5 C4 6 4 6 1.8125 5.0625 C1.214375 4.711875 0.61625 4.36125 0 4 C0 2.68 0 1.36 0 0 Z " fill="#777A74" transform="translate(125,124)"/>
<path d="M0 0 C3.57104439 1.87949705 5.54744301 3.17053157 7 7 C5.68 6.67 4.36 6.34 3 6 C2.67 4.68 2.34 3.36 2 2 C1.34 2 0.68 2 0 2 C0 1.34 0 0.68 0 0 Z " fill="#354447" transform="translate(130,114)"/>
<path d="M0 0 C1.67542976 0.28604898 3.34385343 0.61781233 5 1 C5 1.66 5 2.32 5 3 C3.02 3.33 1.04 3.66 -1 4 C-1 1 -1 1 0 0 Z " fill="#8F9088" transform="translate(113,111)"/>
<path d="M0 0 C1.5 1.25 1.5 1.25 3 3 C3 4.32 3 5.64 3 7 C1.68 6.67 0.36 6.34 -1 6 C-0.67 4.02 -0.34 2.04 0 0 Z " fill="#606762" transform="translate(98,93)"/>
<path d="M0 0 C0.66 0 1.32 0 2 0 C2.33 1.98 2.66 3.96 3 6 C1.35 6 -0.3 6 -2 6 C-1.34 4.02 -0.68 2.04 0 0 Z " fill="#323E3C" transform="translate(100,82)"/>
<path d="M0 0 C0.33 0.66 0.66 1.32 1 2 C0.0625 4.625 0.0625 4.625 -1 7 C-1.99 7 -2.98 7 -4 7 C-3.6875 4.625 -3.6875 4.625 -3 2 C-2.01 1.34 -1.02 0.68 0 0 Z " fill="#3A4544" transform="translate(123,147)"/>
<path d="M0 0 C0.33 1.65 0.66 3.3 1 5 C0.01 5 -0.98 5 -2 5 C-3.33333333 3.66666667 -4.66666667 2.33333333 -6 1 C-3.92446352 0.4465236 -2.15634036 0 0 0 Z " fill="#414A48" transform="translate(111,131)"/>
<path d="M0 0 C1.98 0 3.96 0 6 0 C6 0.66 6 1.32 6 2 C5.01 2 4.02 2 3 2 C2.67 2.99 2.34 3.98 2 5 C1.01 4.67 0.02 4.34 -1 4 C-0.67 2.68 -0.34 1.36 0 0 Z " fill="#959792" transform="translate(101,109)"/>
<path d="M0 0 C0.66 0.33 1.32 0.66 2 1 C1.67 2.32 1.34 3.64 1 5 C0.34 5 -0.32 5 -1 5 C-1.33 5.66 -1.66 6.32 -2 7 C-2 5.02 -2 3.04 -2 1 C-1.34 0.67 -0.68 0.34 0 0 Z " fill="#6A7474" transform="translate(135,147)"/>
<path d="M0 0 C0.99 0.66 1.98 1.32 3 2 C2.34 2 1.68 2 1 2 C1 3.32 1 4.64 1 6 C-0.32 5.67 -1.64 5.34 -3 5 C-3 4.01 -3 3.02 -3 2 C-2.01 1.34 -1.02 0.68 0 0 Z " fill="#1E292B" transform="translate(85,146)"/>
<path d="M0 0 C0 0.66 0 1.32 0 2 C-0.66 2 -1.32 2 -2 2 C-2 2.99 -2 3.98 -2 5 C-2.99 5 -3.98 5 -5 5 C-5.33 4.01 -5.66 3.02 -6 2 C-2.25 0 -2.25 0 0 0 Z " fill="#6A6760" transform="translate(114,141)"/>
<path d="M0 0 C0.33 0.66 0.66 1.32 1 2 C0.34 2 -0.32 2 -1 2 C-1.33 3.32 -1.66 4.64 -2 6 C-2.99 5.67 -3.98 5.34 -5 5 C-4.34 5 -3.68 5 -3 5 C-3.66 3.68 -4.32 2.36 -5 1 C-3.35 0.67 -1.7 0.34 0 0 Z " fill="#556262" transform="translate(90,134)"/>
<path d="M0 0 C2.475 0.495 2.475 0.495 5 1 C4.67 2.32 4.34 3.64 4 5 C3.01 5 2.02 5 1 5 C0.67 3.35 0.34 1.7 0 0 Z " fill="#6E756F" transform="translate(145,94)"/>
<path d="M0 0 C0.99 0 1.98 0 3 0 C3 0.99 3 1.98 3 3 C1 4.6875 1 4.6875 -1 6 C-1.33 5.01 -1.66 4.02 -2 3 C-1.34 2.01 -0.68 1.02 0 0 Z " fill="#334141" transform="translate(99,76)"/>
<path d="M0 0 C1.32 0 2.64 0 4 0 C4.66 1.65 5.32 3.3 6 5 C5.01 5 4.02 5 3 5 C2.67 4.34 2.34 3.68 2 3 C1.01 2.34 0.02 1.68 -1 1 C-0.67 0.67 -0.34 0.34 0 0 Z " fill="#5D635E" transform="translate(123,52)"/>
</svg>
