<svg width="128" height="36" viewBox="0 0 128 36" fill="none" xmlns="http://www.w3.org/2000/svg">
<path d="M1.00781 34.8067V10.9319H6.7191V34.8067H1.00781Z" fill="white"/>
<path d="M1.00781 34.8067V10.9319H6.7191V34.8067H1.00781Z" fill="url(#paint0_linear_433_766)"/>
<path d="M7.72704 4.8766C7.72704 7.07422 5.99728 8.85574 3.86352 8.85574C1.72976 8.85574 0 7.07422 0 4.8766C0 2.67898 1.72976 0.897461 3.86352 0.897461C5.99728 0.897461 7.72704 2.67898 7.72704 4.8766Z" fill="white"/>
<path d="M7.72704 4.8766C7.72704 7.07422 5.99728 8.85574 3.86352 8.85574C1.72976 8.85574 0 7.07422 0 4.8766C0 2.67898 1.72976 0.897461 3.86352 0.897461C5.99728 0.897461 7.72704 2.67898 7.72704 4.8766Z" fill="url(#paint1_linear_433_766)"/>
<path d="M12.0947 34.4606V10.9922H18.067V13.2194C25.1877 7.16951 33.2601 10.9923 33.2601 18.7707V34.4606H27.255C27.2769 30.7486 27.3075 22.9658 27.255 21.5297C27.1894 19.7347 27.0581 16.743 24.7611 15.8787C21.8406 14.8482 18.067 17.4743 18.067 21.5297V34.4606H12.0947Z" fill="white"/>
<path d="M12.0947 34.4606V10.9922H18.067V13.2194C25.1877 7.16951 33.2601 10.9923 33.2601 18.7707V34.4606H27.255C27.2769 30.7486 27.3075 22.9658 27.255 21.5297C27.1894 19.7347 27.0581 16.743 24.7611 15.8787C21.8406 14.8482 18.067 17.4743 18.067 21.5297V34.4606H12.0947Z" fill="url(#paint2_linear_433_766)"/>
<path fill-rule="evenodd" clip-rule="evenodd" d="M89.6041 24.6275H73.1658C73.1335 26.5076 74.0683 30.2943 78.065 30.4005C81.9329 30.5066 83.5015 28.4319 83.8023 27.3813H89.1206C88.7768 30.0687 86.0844 35.3838 78.065 35.1449C68.4276 34.9459 67.0417 26.3196 66.8805 24.6275C66.7193 22.9354 67.0094 11.6216 78.065 10.9581C89.1206 10.2945 90.0876 22.4377 89.6041 24.6275ZM73.1925 20.5143H83.3477C83.2617 18.8678 82.1355 15.588 78.3184 15.6411C74.5014 15.6941 73.3107 18.912 73.1925 20.5143Z" fill="white"/>
<path fill-rule="evenodd" clip-rule="evenodd" d="M89.6041 24.6275H73.1658C73.1335 26.5076 74.0683 30.2943 78.065 30.4005C81.9329 30.5066 83.5015 28.4319 83.8023 27.3813H89.1206C88.7768 30.0687 86.0844 35.3838 78.065 35.1449C68.4276 34.9459 67.0417 26.3196 66.8805 24.6275C66.7193 22.9354 67.0094 11.6216 78.065 10.9581C89.1206 10.2945 90.0876 22.4377 89.6041 24.6275ZM73.1925 20.5143H83.3477C83.2617 18.8678 82.1355 15.588 78.3184 15.6411C74.5014 15.6941 73.3107 18.912 73.1925 20.5143Z" fill="url(#paint3_linear_433_766)"/>
<path fill-rule="evenodd" clip-rule="evenodd" d="M115.809 25.1691H99.3708C99.3386 27.076 100.273 30.9168 104.27 31.0245C108.138 31.1322 109.707 29.0278 110.007 27.9622H115.326C114.982 30.688 112.289 36.0791 104.27 35.8368C94.6327 35.6349 93.2467 26.8853 93.0856 25.1691C92.9244 23.4528 93.2145 11.9774 104.27 11.3044C115.326 10.6314 116.293 22.948 115.809 25.1691ZM99.4022 20.9977H109.564C109.478 19.322 108.351 15.9841 104.532 16.0381C100.712 16.0921 99.5205 19.367 99.4022 20.9977Z" fill="white"/>
<path fill-rule="evenodd" clip-rule="evenodd" d="M115.809 25.1691H99.3708C99.3386 27.076 100.273 30.9168 104.27 31.0245C108.138 31.1322 109.707 29.0278 110.007 27.9622H115.326C114.982 30.688 112.289 36.0791 104.27 35.8368C94.6327 35.6349 93.2467 26.8853 93.0856 25.1691C92.9244 23.4528 93.2145 11.9774 104.27 11.3044C115.326 10.6314 116.293 22.948 115.809 25.1691ZM99.4022 20.9977H109.564C109.478 19.322 108.351 15.9841 104.532 16.0381C100.712 16.0921 99.5205 19.367 99.4022 20.9977Z" fill="url(#paint4_linear_433_766)"/>
<path fill-rule="evenodd" clip-rule="evenodd" d="M62.4883 1.5896V34.8556H56.4784V32.2915C55.5807 33.3936 52.9118 35.5776 49.4175 35.4966C44.754 35.3954 37.7916 32.5276 37.6274 22.17C37.6274 14.039 44.2942 9.99044 48.892 10.1254C52.5703 10.2334 55.4822 12.5096 56.4784 13.6342V1.5896H62.4883ZM50.14 30.0919C53.8186 30.0919 56.8007 26.8472 56.8007 22.8448C56.8007 18.8424 53.8186 15.5977 50.14 15.5977C46.4615 15.5977 43.4794 18.8424 43.4794 22.8448C43.4794 26.8472 46.4615 30.0919 50.14 30.0919Z" fill="white"/>
<path fill-rule="evenodd" clip-rule="evenodd" d="M62.4883 1.5896V34.8556H56.4784V32.2915C55.5807 33.3936 52.9118 35.5776 49.4175 35.4966C44.754 35.3954 37.7916 32.5276 37.6274 22.17C37.6274 14.039 44.2942 9.99044 48.892 10.1254C52.5703 10.2334 55.4822 12.5096 56.4784 13.6342V1.5896H62.4883ZM50.14 30.0919C53.8186 30.0919 56.8007 26.8472 56.8007 22.8448C56.8007 18.8424 53.8186 15.5977 50.14 15.5977C46.4615 15.5977 43.4794 18.8424 43.4794 22.8448C43.4794 26.8472 46.4615 30.0919 50.14 30.0919Z" fill="url(#paint5_linear_433_766)"/>
<path d="M128 31.8655C128 34.0632 126.27 35.8447 124.136 35.8447C122.003 35.8447 120.273 34.0632 120.273 31.8655C120.273 29.6679 122.003 27.8864 124.136 27.8864C126.27 27.8864 128 29.6679 128 31.8655Z" fill="white"/>
<path d="M128 31.8655C128 34.0632 126.27 35.8447 124.136 35.8447C122.003 35.8447 120.273 34.0632 120.273 31.8655C120.273 29.6679 122.003 27.8864 124.136 27.8864C126.27 27.8864 128 29.6679 128 31.8655Z" fill="url(#paint6_linear_433_766)"/>
<defs>
<linearGradient id="paint0_linear_433_766" x1="3.75528e-06" y1="18.5674" x2="128" y2="18.5674" gradientUnits="userSpaceOnUse">
<stop stop-color="#5B80FF"/>
<stop offset="1" stop-color="#35A8A0"/>
</linearGradient>
<linearGradient id="paint1_linear_433_766" x1="3.75528e-06" y1="18.5674" x2="128" y2="18.5674" gradientUnits="userSpaceOnUse">
<stop stop-color="#5B80FF"/>
<stop offset="1" stop-color="#35A8A0"/>
</linearGradient>
<linearGradient id="paint2_linear_433_766" x1="3.75528e-06" y1="18.5674" x2="128" y2="18.5674" gradientUnits="userSpaceOnUse">
<stop stop-color="#5B80FF"/>
<stop offset="1" stop-color="#35A8A0"/>
</linearGradient>
<linearGradient id="paint3_linear_433_766" x1="3.75528e-06" y1="18.5674" x2="128" y2="18.5674" gradientUnits="userSpaceOnUse">
<stop stop-color="#5B80FF"/>
<stop offset="1" stop-color="#35A8A0"/>
</linearGradient>
<linearGradient id="paint4_linear_433_766" x1="3.75528e-06" y1="18.5674" x2="128" y2="18.5674" gradientUnits="userSpaceOnUse">
<stop stop-color="#5B80FF"/>
<stop offset="1" stop-color="#35A8A0"/>
</linearGradient>
<linearGradient id="paint5_linear_433_766" x1="3.75528e-06" y1="18.5674" x2="128" y2="18.5674" gradientUnits="userSpaceOnUse">
<stop stop-color="#5B80FF"/>
<stop offset="1" stop-color="#35A8A0"/>
</linearGradient>
<linearGradient id="paint6_linear_433_766" x1="3.75528e-06" y1="18.5674" x2="128" y2="18.5674" gradientUnits="userSpaceOnUse">
<stop stop-color="#5B80FF"/>
<stop offset="1" stop-color="#35A8A0"/>
</linearGradient>
</defs>
</svg>
